<svg xmlns="http://www.w3.org/2000/svg" viewBox="0 0 166.86 35"><defs><style>.cls-1{fill:#6d28d9;}.cls-2{fill:#fff;}</style></defs><g id="Layer_2" data-name="Layer 2"><g id="Profile_Pages" data-name="Profile Pages"><rect class="cls-1" width="166.86" height="35" rx="5.65"/><path class="cls-2" d="M6.83,23.63a3.41,3.41,0,0,1-.5-.19,1.37,1.37,0,0,1-.71-1.26V16.57c0-.4,0-.81,0-1.22a1.41,1.41,0,0,1,1.17-1.41H7.92v.15c0,1.68,0,3.36,0,5a2.13,2.13,0,0,0,1.49,2.09,2.3,2.3,0,0,0,.74.12c1.5,0,3,0,4.51,0h.17a9.43,9.43,0,0,1-.06,1.21,1.34,1.34,0,0,1-1.12,1.07l-.06,0Z"/><path class="cls-2" d="M16.86,16v3.16a1.4,1.4,0,0,1-1.09,1.4,2,2,0,0,1-.34,0H10.11a1.42,1.42,0,0,1-1.43-1.43V12.8a1.41,1.41,0,0,1,1.44-1.43h5.3a1.4,1.4,0,0,1,1.44,1.43Z"/><path class="cls-2" d="M27.25,22.42A5.83,5.83,0,0,1,25.13,22,5.06,5.06,0,0,1,23.45,21a4.86,4.86,0,0,1-1.11-1.64,5.5,5.5,0,0,1,0-4.12,5,5,0,0,1,1.11-1.64,5.31,5.31,0,0,1,1.69-1.08,5.87,5.87,0,0,1,2.12-.38,5.64,5.64,0,0,1,2.07.37A4,4,0,0,1,31,13.58l-.68.68a3.64,3.64,0,0,0-1.38-.92,4.82,4.82,0,0,0-3.32,0,4,4,0,0,0-1.36.88,4.13,4.13,0,0,0-.91,1.34,4.52,4.52,0,0,0,0,3.34,4.13,4.13,0,0,0,.91,1.34,4,4,0,0,0,1.36.88,4.55,4.55,0,0,0,1.7.32,4.32,4.32,0,0,0,1.62-.3,3.76,3.76,0,0,0,1.38-.92l.68.68a4.32,4.32,0,0,1-1.64,1.12A5.69,5.69,0,0,1,27.25,22.42Z"/><path class="cls-2" d="M35.67,22.41a4,4,0,0,1-2-.5,3.8,3.8,0,0,1-1.38-1.38,4.22,4.22,0,0,1,0-4,3.75,3.75,0,0,1,1.37-1.37,4,4,0,0,1,2-.49,4,4,0,0,1,2,.49,3.7,3.7,0,0,1,1.38,1.37,4.29,4.29,0,0,1,0,4,3.76,3.76,0,0,1-1.39,1.38A4,4,0,0,1,35.67,22.41Zm0-.92a2.87,2.87,0,0,0,1.47-.37,2.57,2.57,0,0,0,1-1,3.16,3.16,0,0,0,.37-1.56A3.1,3.1,0,0,0,38.14,17a2.57,2.57,0,0,0-1-1,2.82,2.82,0,0,0-1.45-.37,2.77,2.77,0,0,0-1.45.37,2.62,2.62,0,0,0-1,1,3.11,3.11,0,0,0-.38,1.56,3.16,3.16,0,0,0,.38,1.56,2.62,2.62,0,0,0,1,1A2.75,2.75,0,0,0,35.67,21.49Z"/><path class="cls-2" d="M41.66,25.15V14.72h1V17l-.11,1.53.15,1.53v5.08Zm3.93-2.74A3.45,3.45,0,0,1,43.81,22a3.17,3.17,0,0,1-1.27-1.32,4.28,4.28,0,0,1-.47-2.11,4.42,4.42,0,0,1,.46-2.11,3.25,3.25,0,0,1,1.26-1.31,3.59,3.59,0,0,1,1.8-.45,3.87,3.87,0,0,1,1.95.49A3.49,3.49,0,0,1,48.9,16.5a4.43,4.43,0,0,1,0,4.05,3.55,3.55,0,0,1-1.36,1.36A3.88,3.88,0,0,1,45.59,22.41Zm-.07-.92A2.82,2.82,0,0,0,47,21.12a2.66,2.66,0,0,0,1-1,3.16,3.16,0,0,0,.38-1.56A3.1,3.1,0,0,0,48,17a2.8,2.8,0,0,0-1-1,2.73,2.73,0,0,0-1.45-.38A2.78,2.78,0,0,0,43,17a3.2,3.2,0,0,0-.37,1.55A3.27,3.27,0,0,0,43,20.08a2.62,2.62,0,0,0,1,1A2.86,2.86,0,0,0,45.52,21.49Z"/><path class="cls-2" d="M51.33,25.22a3.12,3.12,0,0,1-1-.17,2.11,2.11,0,0,1-.83-.53l.47-.76a2.47,2.47,0,0,0,.63.42,1.77,1.77,0,0,0,.77.16,1.38,1.38,0,0,0,.87-.29,2.74,2.74,0,0,0,.71-1l.49-1.12.11-.16,3.14-7.06h1l-3.81,8.53a4.26,4.26,0,0,1-.71,1.17,2.18,2.18,0,0,1-.83.62A2.66,2.66,0,0,1,51.33,25.22Zm2-2.67-3.51-7.83h1.07l3.11,7Z"/><path class="cls-2" d="M63.15,22.33V12.18H67a4.55,4.55,0,0,1,3,.93,3.12,3.12,0,0,1,1.11,2.55,3.26,3.26,0,0,1-.5,1.85,3.15,3.15,0,0,1-1.42,1.19,5.36,5.36,0,0,1-2.22.42H63.74l.48-.5v3.71Zm1.07-3.62-.48-.51h3.18a3.53,3.53,0,0,0,2.31-.66A2.32,2.32,0,0,0,70,15.66a2.31,2.31,0,0,0-.79-1.88,3.53,3.53,0,0,0-2.31-.67H63.74l.48-.5Zm5.86,3.62-2.61-3.68h1.16l2.62,3.68Z"/><path class="cls-2" d="M76.65,22.41a4.28,4.28,0,0,1-2.09-.5,3.74,3.74,0,0,1-1.41-1.38,3.92,3.92,0,0,1-.5-2,4.08,4.08,0,0,1,.48-2,3.53,3.53,0,0,1,1.34-1.37,3.91,3.91,0,0,1,3.81,0,3.43,3.43,0,0,1,1.31,1.36,4.13,4.13,0,0,1,.48,2,.76.76,0,0,1,0,.15v.17H73.43v-.77H79.5l-.4.31a3,3,0,0,0-.36-1.48,2.57,2.57,0,0,0-1-1,2.85,2.85,0,0,0-2.81,0,2.57,2.57,0,0,0-1,1,3.15,3.15,0,0,0-.34,1.49v.16A3,3,0,0,0,74,20.09a2.65,2.65,0,0,0,1.07,1,3.26,3.26,0,0,0,1.58.37A3.44,3.44,0,0,0,78,21.25a2.7,2.7,0,0,0,1-.76l.58.67a3.2,3.2,0,0,1-1.27.93A4.29,4.29,0,0,1,76.65,22.41Z"/><path class="cls-2" d="M81,15.58v-.86h4.71v.86Zm1.37,6.75V13.77a2.11,2.11,0,0,1,2.3-2.27,2.94,2.94,0,0,1,.84.12,1.77,1.77,0,0,1,.68.36l-.34.77a1.58,1.58,0,0,0-.51-.28,1.85,1.85,0,0,0-.63-.1,1.31,1.31,0,0,0-1,.37,1.5,1.5,0,0,0-.34,1.07V15l0,.48v6.88Z"/><path class="cls-2" d="M90.19,22.41a4.28,4.28,0,0,1-2.09-.5,3.64,3.64,0,0,1-1.4-1.38,3.93,3.93,0,0,1-.51-2,4.08,4.08,0,0,1,.48-2A3.6,3.6,0,0,1,88,15.15a3.69,3.69,0,0,1,1.9-.5,3.65,3.65,0,0,1,1.91.49,3.3,3.3,0,0,1,1.31,1.36,4.13,4.13,0,0,1,.48,2v.15a1,1,0,0,0,0,.17H87v-.77h6.08l-.41.31a3.11,3.11,0,0,0-.35-1.48,2.65,2.65,0,0,0-2.38-1.37,2.64,2.64,0,0,0-1.4.37,2.48,2.48,0,0,0-1,1,3.15,3.15,0,0,0-.35,1.49v.16a3,3,0,0,0,.38,1.53,2.68,2.68,0,0,0,1.08,1,3.22,3.22,0,0,0,1.57.37,3.49,3.49,0,0,0,1.3-.24,2.74,2.74,0,0,0,1-.76l.58.67a3.13,3.13,0,0,1-1.27.93A4.29,4.29,0,0,1,90.19,22.41Z"/><path class="cls-2" d="M95.71,22.33V14.72h1V16.8l-.1-.37a2.47,2.47,0,0,1,1.07-1.32,3.5,3.5,0,0,1,1.87-.46v1h-.23a2.43,2.43,0,0,0-1.88.73,2.92,2.92,0,0,0-.69,2.08v3.88Z"/><path class="cls-2" d="M101.41,22.33V14.72h1V16.8l-.1-.37a2.47,2.47,0,0,1,1.07-1.32,3.5,3.5,0,0,1,1.87-.46v1H105a2.46,2.46,0,0,0-1.89.73,3,3,0,0,0-.68,2.08v3.88Z"/><path class="cls-2" d="M108.78,22.41a3.6,3.6,0,0,1-1.49-.29,2.08,2.08,0,0,1-1-.78,2,2,0,0,1-.34-1.15,2.08,2.08,0,0,1,.29-1.08,2,2,0,0,1,.93-.78,4.13,4.13,0,0,1,1.73-.3h2.62v.77H109a2.27,2.27,0,0,0-1.53.39,1.31,1.31,0,0,0,.08,2,2.22,2.22,0,0,0,1.42.4,2.8,2.8,0,0,0,1.5-.4,2.28,2.28,0,0,0,.92-1.16l.23.71a2.38,2.38,0,0,1-1,1.21A3.31,3.31,0,0,1,108.78,22.41Zm2.62-.08V20.65l0-.27V17.56a2,2,0,0,0-.54-1.49,2.27,2.27,0,0,0-1.62-.52,4,4,0,0,0-1.41.25,3.56,3.56,0,0,0-1.13.65l-.46-.77a4,4,0,0,1,1.39-.76,5.37,5.37,0,0,1,1.71-.27,3.24,3.24,0,0,1,2.28.73,2.86,2.86,0,0,1,.81,2.23v4.72Z"/><path class="cls-2" d="M115.19,22.33V11.58h1V22.33Z"/><path class="cls-2" d="M127.51,22.42A5.78,5.78,0,0,1,125.4,22,5.2,5.2,0,0,1,123.71,21a5,5,0,0,1-1.1-1.64,5.5,5.5,0,0,1,0-4.12,4.86,4.86,0,0,1,1.11-1.64,5.2,5.2,0,0,1,1.69-1.08,5.83,5.83,0,0,1,2.12-.38,5.71,5.71,0,0,1,2.07.37,4.05,4.05,0,0,1,1.64,1.11l-.68.68a3.8,3.8,0,0,0-1.38-.92,4.82,4.82,0,0,0-3.32,0,3.89,3.89,0,0,0-1.36.88,4.24,4.24,0,0,0,0,6,3.89,3.89,0,0,0,1.36.88,4.51,4.51,0,0,0,1.7.32,4.32,4.32,0,0,0,1.62-.3,3.93,3.93,0,0,0,1.38-.92l.68.68a4.4,4.4,0,0,1-1.64,1.12A5.74,5.74,0,0,1,127.51,22.42Z"/><path class="cls-2" d="M135.94,22.41a3.94,3.94,0,0,1-2-.5,3.76,3.76,0,0,1-1.39-1.38,3.92,3.92,0,0,1-.5-2,3.9,3.9,0,0,1,.5-2A3.7,3.7,0,0,1,134,15.14a3.94,3.94,0,0,1,2-.49,4,4,0,0,1,2,.49,3.61,3.61,0,0,1,1.37,1.37,3.9,3.9,0,0,1,.5,2,3.92,3.92,0,0,1-.5,2,3.66,3.66,0,0,1-1.38,1.38A4,4,0,0,1,135.94,22.41Zm0-.92a2.81,2.81,0,0,0,1.46-.37,2.59,2.59,0,0,0,1-1,3.16,3.16,0,0,0,.37-1.56,3.1,3.1,0,0,0-.37-1.56,2.59,2.59,0,0,0-1-1,3,3,0,0,0-2.9,0,2.66,2.66,0,0,0-1,1,3,3,0,0,0-.38,1.56,3.06,3.06,0,0,0,.38,1.56,2.66,2.66,0,0,0,1,1A2.81,2.81,0,0,0,135.94,21.49Z"/><path class="cls-2" d="M145,22.41a3.82,3.82,0,0,1-2-.5,3.45,3.45,0,0,1-1.36-1.37,4,4,0,0,1-.49-2,4,4,0,0,1,.49-2A3.46,3.46,0,0,1,143,15.14a3.82,3.82,0,0,1,2-.49,3.58,3.58,0,0,1,1.79.45A3.38,3.38,0,0,1,148,16.41a4.41,4.41,0,0,1,.47,2.11,4.4,4.4,0,0,1-.46,2.1A3.24,3.24,0,0,1,146.76,22,3.5,3.5,0,0,1,145,22.41Zm.07-.92a2.86,2.86,0,0,0,1.46-.37,2.59,2.59,0,0,0,1-1,3.16,3.16,0,0,0,.37-1.56A3.1,3.1,0,0,0,147.5,17a2.59,2.59,0,0,0-1-1,2.86,2.86,0,0,0-1.46-.37,2.81,2.81,0,0,0-1.44.37,2.66,2.66,0,0,0-1,1,3.11,3.11,0,0,0-.38,1.56,3.16,3.16,0,0,0,.38,1.56,2.66,2.66,0,0,0,1,1A2.81,2.81,0,0,0,145,21.49Zm2.87.84V20l.1-1.53L147.86,17V11.58h1V22.33Z"/><path class="cls-2" d="M155,22.41a4.28,4.28,0,0,1-2.09-.5,3.64,3.64,0,0,1-1.4-1.38,3.93,3.93,0,0,1-.51-2,4.08,4.08,0,0,1,.48-2,3.6,3.6,0,0,1,1.34-1.37,3.69,3.69,0,0,1,1.9-.5,3.65,3.65,0,0,1,1.91.49,3.37,3.37,0,0,1,1.31,1.36,4.13,4.13,0,0,1,.48,2,.76.76,0,0,1,0,.15v.17h-6.63v-.77h6.08l-.41.31a3.11,3.11,0,0,0-.35-1.48,2.65,2.65,0,0,0-2.38-1.37,2.64,2.64,0,0,0-1.4.37,2.48,2.48,0,0,0-1,1A3.15,3.15,0,0,0,152,18.4v.16a3,3,0,0,0,.38,1.53,2.68,2.68,0,0,0,1.08,1,3.2,3.2,0,0,0,1.57.37,3.49,3.49,0,0,0,1.3-.24,2.74,2.74,0,0,0,1-.76l.58.67a3.13,3.13,0,0,1-1.27.93A4.29,4.29,0,0,1,155,22.41Z"/></g></g></svg>