<svg xmlns="http://www.w3.org/2000/svg" viewBox="0 0 157.69 35.5"><defs><style>.cls-1{fill:#fff;stroke:#000;stroke-linecap:round;stroke-linejoin:round;stroke-width:0.5px;}</style></defs><g id="Layer_2" data-name="Layer 2"><g id="Profile_Pages" data-name="Profile Pages"><rect class="cls-1" x="0.25" y="0.25" width="157.19" height="35" rx="5.65"/><path d="M51.39,21.37a5.16,5.16,0,0,1-1.8-.31,3.35,3.35,0,0,1-1.32-.78l.34-.69a3.65,3.65,0,0,0,1.2.73,4.39,4.39,0,0,0,1.58.29,3.43,3.43,0,0,0,1.29-.2,1.6,1.6,0,0,0,.73-.53,1.3,1.3,0,0,0,.23-.75,1.11,1.11,0,0,0-.28-.79,2,2,0,0,0-.74-.47,7.56,7.56,0,0,0-1-.31c-.36-.08-.73-.18-1.1-.28a4.34,4.34,0,0,1-1-.4,2.11,2.11,0,0,1-.75-.67,1.84,1.84,0,0,1-.28-1.08A2.11,2.11,0,0,1,48.8,14a2.3,2.3,0,0,1,1-.84,4.23,4.23,0,0,1,1.76-.32A5.15,5.15,0,0,1,53,13a4.14,4.14,0,0,1,1.2.55l-.3.71a3.87,3.87,0,0,0-1.15-.53,4,4,0,0,0-1.17-.17,3.35,3.35,0,0,0-1.24.2,1.62,1.62,0,0,0-.73.55,1.32,1.32,0,0,0-.23.77,1.12,1.12,0,0,0,.28.8,1.83,1.83,0,0,0,.74.46,6.82,6.82,0,0,0,1,.3l1.09.29a5.74,5.74,0,0,1,1,.4,2.18,2.18,0,0,1,.75.66,1.91,1.91,0,0,1,.28,1.07,2,2,0,0,1-.34,1.13,2.28,2.28,0,0,1-1,.84A4.28,4.28,0,0,1,51.39,21.37Z"/><path d="M56.27,21.3V12.39h.85v4.33L57,16.4a2.26,2.26,0,0,1,1-1.07,3.06,3.06,0,0,1,1.58-.39,2.92,2.92,0,0,1,1.35.29,2.17,2.17,0,0,1,.91.89,3.12,3.12,0,0,1,.33,1.51V21.3h-.85V17.72a2.1,2.1,0,0,0-.5-1.51,1.87,1.87,0,0,0-1.4-.51,2.41,2.41,0,0,0-1.17.27,1.87,1.87,0,0,0-.77.78A2.6,2.6,0,0,0,57.12,18V21.3Z"/><path d="M66.16,21.36a2.93,2.93,0,0,1-1.23-.24,1.8,1.8,0,0,1-.8-.65,1.76,1.76,0,0,1,0-1.84,1.58,1.58,0,0,1,.77-.65,3.34,3.34,0,0,1,1.43-.25h2.17v.64H66.31a1.91,1.91,0,0,0-1.26.32,1.06,1.06,0,0,0-.36.81,1,1,0,0,0,.42.86,1.88,1.88,0,0,0,1.18.32,2.27,2.27,0,0,0,1.24-.33,1.86,1.86,0,0,0,.76-1l.2.59a2,2,0,0,1-.84,1A2.72,2.72,0,0,1,66.16,21.36Zm2.17-.06V19.9l0-.22V17.35a1.64,1.64,0,0,0-.45-1.24,1.84,1.84,0,0,0-1.33-.43,3.51,3.51,0,0,0-1.17.2,3,3,0,0,0-.93.54L64,15.79a3.55,3.55,0,0,1,1.15-.63,4.44,4.44,0,0,1,1.42-.22,2.71,2.71,0,0,1,1.89.6,2.4,2.4,0,0,1,.67,1.84V21.3Z"/><path d="M71.46,21.3V15h.82v1.71l-.09-.3a2.16,2.16,0,0,1,.89-1.1,3,3,0,0,1,1.55-.37v.82h-.19a2,2,0,0,0-1.56.61,2.41,2.41,0,0,0-.57,1.72V21.3Z"/><path d="M78.79,21.36a3.42,3.42,0,0,1-1.72-.42A2.92,2.92,0,0,1,75.9,19.8a3.25,3.25,0,0,1-.42-1.66,3.45,3.45,0,0,1,.4-1.66,3.17,3.17,0,0,1,4.26-1.14,2.86,2.86,0,0,1,1.09,1.12,3.53,3.53,0,0,1,.4,1.68s0,.08,0,.13,0,.09,0,.13H76.13v-.63h5l-.34.25a2.56,2.56,0,0,0-.29-1.22,2.2,2.2,0,0,0-.8-.83,2.23,2.23,0,0,0-1.16-.3,2.29,2.29,0,0,0-1.17.3,2.09,2.09,0,0,0-.8.84A2.6,2.6,0,0,0,76.31,18v.14a2.46,2.46,0,0,0,.32,1.26,2.15,2.15,0,0,0,.89.85,2.63,2.63,0,0,0,1.3.31,2.91,2.91,0,0,0,1.07-.2,2.31,2.31,0,0,0,.86-.63l.48.55a2.61,2.61,0,0,1-1,.77A3.48,3.48,0,0,1,78.79,21.36Z"/><path d="M89.08,21.36a3.2,3.2,0,0,1-1.64-.42,3,3,0,0,1-1.15-1.14,3.51,3.51,0,0,1,0-3.33,3.09,3.09,0,0,1,1.14-1.13,3.3,3.3,0,0,1,1.65-.4,3.34,3.34,0,0,1,1.66.4,3.09,3.09,0,0,1,1.14,1.13,3.59,3.59,0,0,1,0,3.33,2.93,2.93,0,0,1-1.15,1.14A3.24,3.24,0,0,1,89.08,21.36Zm0-.76a2.32,2.32,0,0,0,1.21-.31,2.15,2.15,0,0,0,.83-.86,2.86,2.86,0,0,0,0-2.59,2.19,2.19,0,0,0-.83-.85,2.35,2.35,0,0,0-3.24.85,2.86,2.86,0,0,0,0,2.59,2.24,2.24,0,0,0,.84.86A2.27,2.27,0,0,0,89.08,20.6Z"/><path d="M94,21.3V15h.82v1.72l-.13-.32a2.26,2.26,0,0,1,1-1.07,3,3,0,0,1,1.57-.39,2.92,2.92,0,0,1,1.35.29,2.11,2.11,0,0,1,.91.89,3.12,3.12,0,0,1,.33,1.51V21.3H99V17.72a2.1,2.1,0,0,0-.5-1.51,1.87,1.87,0,0,0-1.4-.51,2.46,2.46,0,0,0-1.17.27,1.85,1.85,0,0,0-.76.78A2.6,2.6,0,0,0,94.89,18V21.3Z"/><path d="M107.79,21.37a5.16,5.16,0,0,1-1.8-.31,3.35,3.35,0,0,1-1.32-.78l.34-.69a3.65,3.65,0,0,0,1.2.73,4.39,4.39,0,0,0,1.58.29,3.43,3.43,0,0,0,1.29-.2,1.6,1.6,0,0,0,.73-.53,1.3,1.3,0,0,0,.23-.75,1.11,1.11,0,0,0-.28-.79,2,2,0,0,0-.74-.47,7.56,7.56,0,0,0-1-.31c-.36-.08-.73-.18-1.1-.28a4.34,4.34,0,0,1-1-.4,2.11,2.11,0,0,1-.75-.67,1.84,1.84,0,0,1-.28-1.08A2.11,2.11,0,0,1,105.2,14a2.3,2.3,0,0,1,1-.84,4.23,4.23,0,0,1,1.76-.32,5.15,5.15,0,0,1,1.4.2,4.14,4.14,0,0,1,1.2.55l-.3.71a3.87,3.87,0,0,0-1.15-.53,4,4,0,0,0-1.17-.17,3.35,3.35,0,0,0-1.24.2,1.62,1.62,0,0,0-.73.55,1.32,1.32,0,0,0-.23.77,1.12,1.12,0,0,0,.28.8,1.83,1.83,0,0,0,.74.46,6.82,6.82,0,0,0,1,.3l1.09.29a5.74,5.74,0,0,1,1,.4,2.18,2.18,0,0,1,.75.66,1.91,1.91,0,0,1,.28,1.07,2,2,0,0,1-.34,1.13,2.28,2.28,0,0,1-1,.84A4.28,4.28,0,0,1,107.79,21.37Z"/><path d="M112.85,21.3V12.9h.73l3.84,6.55H117l3.8-6.55h.73v8.4h-.85V14.23h.21l-3.51,6H117l-3.53-6h.23V21.3Z"/><path d="M126.63,21.37a5.16,5.16,0,0,1-1.8-.31,3.35,3.35,0,0,1-1.32-.78l.34-.69a3.65,3.65,0,0,0,1.2.73,4.39,4.39,0,0,0,1.58.29,3.43,3.43,0,0,0,1.29-.2,1.6,1.6,0,0,0,.73-.53,1.3,1.3,0,0,0,.23-.75,1.11,1.11,0,0,0-.28-.79,2,2,0,0,0-.74-.47,7.56,7.56,0,0,0-1-.31c-.36-.08-.73-.18-1.1-.28a4.34,4.34,0,0,1-1-.4,2.11,2.11,0,0,1-.75-.67,1.84,1.84,0,0,1-.28-1.08A2.11,2.11,0,0,1,124,14a2.3,2.3,0,0,1,1-.84,4.23,4.23,0,0,1,1.76-.32,5.15,5.15,0,0,1,1.4.2,4.14,4.14,0,0,1,1.2.55l-.3.71a3.87,3.87,0,0,0-1.15-.53,4,4,0,0,0-1.17-.17,3.35,3.35,0,0,0-1.24.2,1.62,1.62,0,0,0-.73.55,1.32,1.32,0,0,0-.23.77,1.12,1.12,0,0,0,.28.8,1.83,1.83,0,0,0,.74.46,6.82,6.82,0,0,0,1,.3l1.09.29a5.74,5.74,0,0,1,1,.4,2.18,2.18,0,0,1,.75.66,1.91,1.91,0,0,1,.28,1.07,2,2,0,0,1-.34,1.13,2.28,2.28,0,0,1-1,.84A4.28,4.28,0,0,1,126.63,21.37Z"/><path d="M27.93,24.51V14.7a.41.41,0,0,0,0-.08,2.59,2.59,0,0,1,2.65-2.23H41.47s0,.08,0,.11c0,2.24,0,4.47,0,6.71a2.52,2.52,0,0,1-.12.71,2.57,2.57,0,0,1-2.54,1.8H30.92a.4.4,0,0,0-.31.13l-2.54,2.54Zm4.19-8v1h1v-1Zm2.07,1h1v-1h-1Zm3.1,0v-1h-1v1Z"/></g></g></svg>