<svg xmlns="http://www.w3.org/2000/svg" viewBox="0 0 157.69 35.5"><defs><style>.cls-1{fill:#fff;stroke:#000;stroke-linecap:round;stroke-linejoin:round;stroke-width:0.5px;}</style></defs><g id="Layer_2" data-name="Layer 2"><g id="Profile_Pages" data-name="Profile Pages"><rect class="cls-1" x="0.25" y="0.25" width="157.19" height="35" rx="5.65"/><path d="M59.16,22.64a5.38,5.38,0,0,1-1.79-.3A3.61,3.61,0,0,1,56,21.55l.35-.68a3.48,3.48,0,0,0,1.2.72,4.18,4.18,0,0,0,1.57.3,3.56,3.56,0,0,0,1.29-.2,1.58,1.58,0,0,0,.74-.53,1.33,1.33,0,0,0,.23-.75,1.09,1.09,0,0,0-.28-.79,1.92,1.92,0,0,0-.74-.47,7.56,7.56,0,0,0-1-.31l-1.1-.28a5.16,5.16,0,0,1-1-.4,2.17,2.17,0,0,1-.74-.67,1.9,1.9,0,0,1-.28-1.09,2.1,2.1,0,0,1,.33-1.14,2.3,2.3,0,0,1,1-.84,4.21,4.21,0,0,1,1.75-.32,5.22,5.22,0,0,1,1.41.2,4.13,4.13,0,0,1,1.2.54l-.3.71A3.84,3.84,0,0,0,60.5,15a4,4,0,0,0-1.17-.17,3.24,3.24,0,0,0-1.25.2,1.59,1.59,0,0,0-.72.55,1.28,1.28,0,0,0-.24.77,1.1,1.1,0,0,0,.29.79,1.78,1.78,0,0,0,.74.47c.31.11.65.21,1,.3l1.1.29a5.06,5.06,0,0,1,1,.4,1.89,1.89,0,0,1,.74.66,1.8,1.8,0,0,1,.29,1.06A2.11,2.11,0,0,1,62,21.49a2.37,2.37,0,0,1-1,.84A4.29,4.29,0,0,1,59.16,22.64Z"/><path d="M64.05,22.57v-8.9h.85V18l-.17-.32a2.29,2.29,0,0,1,1-1.08,3,3,0,0,1,1.57-.39,2.86,2.86,0,0,1,1.35.3,2.08,2.08,0,0,1,.92.89,3.1,3.1,0,0,1,.33,1.51v3.66H69V19a2.08,2.08,0,0,0-.49-1.51,1.88,1.88,0,0,0-1.4-.51,2.41,2.41,0,0,0-1.17.27,1.87,1.87,0,0,0-.77.78,2.6,2.6,0,0,0-.27,1.23v3.31Z"/><path d="M73.94,22.63a3,3,0,0,1-1.23-.23,1.8,1.8,0,0,1-.8-.65,1.63,1.63,0,0,1-.28-.95,1.73,1.73,0,0,1,.24-.9,1.65,1.65,0,0,1,.76-.65A3.6,3.6,0,0,1,74.07,19h2.17v.63H74.09a1.83,1.83,0,0,0-1.26.33,1,1,0,0,0-.36.8,1.05,1.05,0,0,0,.42.87,1.93,1.93,0,0,0,1.18.32,2.27,2.27,0,0,0,1.24-.33,1.9,1.9,0,0,0,.76-.95l.19.58a2,2,0,0,1-.83,1A2.74,2.74,0,0,1,73.94,22.63Zm2.17-.06V21.18l0-.23V18.63a1.64,1.64,0,0,0-.45-1.24A1.85,1.85,0,0,0,74.28,17a3.49,3.49,0,0,0-1.16.2,3.17,3.17,0,0,0-.94.54l-.38-.64A3.45,3.45,0,0,1,73,16.43a4.74,4.74,0,0,1,1.42-.22,2.75,2.75,0,0,1,1.89.61,2.38,2.38,0,0,1,.66,1.84v3.91Z"/><path d="M79.24,22.57v-6.3h.82V18l-.09-.3a2.08,2.08,0,0,1,.89-1.1,3,3,0,0,1,1.55-.38V17h-.19a2,2,0,0,0-1.56.6,2.44,2.44,0,0,0-.57,1.73v3.21Z"/><path d="M86.57,22.63a3.6,3.6,0,0,1-1.73-.41,3.1,3.1,0,0,1-1.16-1.14,3.28,3.28,0,0,1-.42-1.66,3.32,3.32,0,0,1,.4-1.66,2.94,2.94,0,0,1,1.11-1.13,3,3,0,0,1,1.57-.42,3,3,0,0,1,1.58.41A2.87,2.87,0,0,1,89,17.74a3.53,3.53,0,0,1,.39,1.68v.12a.66.66,0,0,0,0,.14H83.91V19h5l-.34.26a2.56,2.56,0,0,0-.29-1.22,2.31,2.31,0,0,0-.8-.84,2.49,2.49,0,0,0-2.33,0,2.15,2.15,0,0,0-.8.84,2.55,2.55,0,0,0-.29,1.24v.13a2.4,2.4,0,0,0,.32,1.27,2.18,2.18,0,0,0,.88.85,2.67,2.67,0,0,0,1.31.31,2.72,2.72,0,0,0,1.07-.21,2.18,2.18,0,0,0,.86-.62l.48.55a2.71,2.71,0,0,1-1.05.77A3.66,3.66,0,0,1,86.57,22.63Z"/><path d="M96.86,22.63a3.3,3.3,0,0,1-1.64-.41,3.07,3.07,0,0,1-1.15-1.14,3.51,3.51,0,0,1,0-3.33,3,3,0,0,1,1.14-1.13,3.31,3.31,0,0,1,1.65-.41,3.38,3.38,0,0,1,1.66.41,3,3,0,0,1,1.14,1.13,3.59,3.59,0,0,1,0,3.33,3.07,3.07,0,0,1-1.15,1.14A3.36,3.36,0,0,1,96.86,22.63Zm0-.75a2.32,2.32,0,0,0,1.21-.31,2.15,2.15,0,0,0,.83-.86,2.62,2.62,0,0,0,.31-1.29,2.58,2.58,0,0,0-.31-1.3,2.21,2.21,0,0,0-.83-.86,2.55,2.55,0,0,0-2.4,0,2.31,2.31,0,0,0-.84.86,2.58,2.58,0,0,0-.31,1.3,2.62,2.62,0,0,0,.31,1.29,2.24,2.24,0,0,0,.84.86A2.27,2.27,0,0,0,96.86,21.88Z"/><path d="M101.81,22.57v-6.3h.82V18l-.13-.32a2.29,2.29,0,0,1,1-1.08,3,3,0,0,1,1.57-.39,2.92,2.92,0,0,1,1.35.3,2.06,2.06,0,0,1,.91.89,3.1,3.1,0,0,1,.33,1.51v3.66h-.85V19a2.08,2.08,0,0,0-.5-1.51,1.87,1.87,0,0,0-1.4-.51,2.41,2.41,0,0,0-1.17.27,1.87,1.87,0,0,0-.77.78,2.6,2.6,0,0,0-.27,1.23v3.31Z"/><path d="M112.08,22.57l3.45-4.65v.68l-3.24-4.43h1l2.72,3.7h-.39l2.72-3.71h1l-3.2,4.37v-.62l3.43,4.65h-1l-2.91-3.94H116l-2.88,3.94Z"/><path d="M48.07,22.51l-3.59-5.2-.4-.59L41.52,13l-.22-.3H38.15l.77,1.11,3.41,4.95.4.59,2.74,4,.21.31h3.15Zm-2,.41-2.85-4.14-.4-.59-3.3-4.79h1.42l2.67,3.88.4.59,3.48,5.05Z"/><polygon points="42.81 18.19 43.22 18.78 42.73 19.34 39.05 23.63 38.14 23.63 42.33 18.75 42.81 18.19"/><polygon points="48.45 12.69 44.48 17.31 44 17.86 43.6 17.28 44.08 16.72 46.77 13.59 47.55 12.69 48.45 12.69"/></g></g></svg>