<svg xmlns="http://www.w3.org/2000/svg" viewBox="0 0 157.69 35.5"><defs><style>.cls-1{fill:#fff;stroke:#000;stroke-linecap:round;stroke-linejoin:round;stroke-width:0.5px;}.cls-2{fill:#004ca8;}</style></defs><g id="Layer_2" data-name="Layer 2"><g id="Profile_Pages" data-name="Profile Pages"><rect class="cls-1" x="0.25" y="0.25" width="157.19" height="35" rx="5.65"/><path class="cls-2" d="M20.29,18H18.7v5.68H16.34V18H15.22V16h1.12V14.7a2.21,2.21,0,0,1,2.38-2.38h1.75v1.95H19.2a.47.47,0,0,0-.5.54V16h1.8Z"/><path d="M31.14,22.49a5.16,5.16,0,0,1-1.8-.31A3.47,3.47,0,0,1,28,21.4l.35-.69a3.65,3.65,0,0,0,1.2.73,4.39,4.39,0,0,0,1.58.29,3.43,3.43,0,0,0,1.29-.2,1.6,1.6,0,0,0,.73-.53,1.3,1.3,0,0,0,.23-.74,1.12,1.12,0,0,0-.28-.8,2,2,0,0,0-.74-.47,7.56,7.56,0,0,0-1-.31c-.37-.08-.73-.18-1.1-.28a4.61,4.61,0,0,1-1-.4,2.17,2.17,0,0,1-.74-.67,1.84,1.84,0,0,1-.28-1.08,2.11,2.11,0,0,1,.33-1.15,2.3,2.3,0,0,1,1-.84,4.21,4.21,0,0,1,1.75-.32,5.22,5.22,0,0,1,1.41.2,4.14,4.14,0,0,1,1.2.55l-.3.71a3.87,3.87,0,0,0-1.15-.53,4.41,4.41,0,0,0-1.17-.17,3.44,3.44,0,0,0-1.25.2,1.65,1.65,0,0,0-.72.55,1.32,1.32,0,0,0-.23.77,1.12,1.12,0,0,0,.28.8,1.77,1.77,0,0,0,.74.46,6.82,6.82,0,0,0,1,.3l1.09.29a5.74,5.74,0,0,1,1,.4,2.18,2.18,0,0,1,.75.66,1.91,1.91,0,0,1,.28,1.07,2,2,0,0,1-.34,1.13,2.28,2.28,0,0,1-1,.84A4.34,4.34,0,0,1,31.14,22.49Z"/><path d="M36,22.42V13.51h.85v4.33l-.17-.32a2.26,2.26,0,0,1,1-1.07,3,3,0,0,1,1.57-.39,2.86,2.86,0,0,1,1.35.29,2.13,2.13,0,0,1,.92.89,3.14,3.14,0,0,1,.33,1.52v3.66H41V18.84a2.1,2.1,0,0,0-.49-1.51,1.88,1.88,0,0,0-1.4-.51,2.41,2.41,0,0,0-1.17.27,1.87,1.87,0,0,0-.77.78,2.6,2.6,0,0,0-.27,1.23v3.32Z"/><path d="M45.91,22.48a2.87,2.87,0,0,1-1.23-.24,1.74,1.74,0,0,1-.8-.65,1.61,1.61,0,0,1-.28-.95,1.67,1.67,0,0,1,.24-.89,1.6,1.6,0,0,1,.76-.65A3.42,3.42,0,0,1,46,18.85h2.17v.64H46.06a1.89,1.89,0,0,0-1.26.32,1.06,1.06,0,0,0-.36.81,1,1,0,0,0,.42.86A1.86,1.86,0,0,0,46,21.8a2.27,2.27,0,0,0,1.24-.33,1.86,1.86,0,0,0,.76-.95l.19.59a2,2,0,0,1-.83,1A2.75,2.75,0,0,1,45.91,22.48Zm2.17-.06V21l0-.22V18.47a1.64,1.64,0,0,0-.45-1.24,1.85,1.85,0,0,0-1.34-.43,3.49,3.49,0,0,0-1.16.2,3.17,3.17,0,0,0-.94.54l-.38-.63a3.45,3.45,0,0,1,1.15-.63,4.44,4.44,0,0,1,1.42-.22,2.75,2.75,0,0,1,1.89.6,2.39,2.39,0,0,1,.66,1.84v3.92Z"/><path d="M51.21,22.42v-6.3H52v1.71l-.09-.3a2.11,2.11,0,0,1,.89-1.1,3,3,0,0,1,1.55-.37v.82h-.19a2,2,0,0,0-1.56.61,2.41,2.41,0,0,0-.57,1.72v3.22Z"/><path d="M58.54,22.48a3.49,3.49,0,0,1-1.73-.42,3,3,0,0,1-1.16-1.14,3.25,3.25,0,0,1-.42-1.66,3.34,3.34,0,0,1,.4-1.66,3,3,0,0,1,1.11-1.13,3,3,0,0,1,1.57-.41,3,3,0,0,1,1.58.4A2.89,2.89,0,0,1,61,17.59a3.46,3.46,0,0,1,.39,1.67v.13a.57.57,0,0,0,0,.13H55.88v-.63h5l-.34.25a2.56,2.56,0,0,0-.29-1.22,2.16,2.16,0,0,0-2-1.13,2.25,2.25,0,0,0-1.16.3,2.09,2.09,0,0,0-.8.84,2.48,2.48,0,0,0-.29,1.23v.14a2.36,2.36,0,0,0,.32,1.26,2.12,2.12,0,0,0,.88.85,2.67,2.67,0,0,0,1.31.31,2.91,2.91,0,0,0,1.07-.2,2.31,2.31,0,0,0,.86-.63l.48.55a2.61,2.61,0,0,1-1,.77A3.48,3.48,0,0,1,58.54,22.48Z"/><path d="M68.83,22.48a3.2,3.2,0,0,1-1.64-.42A2.93,2.93,0,0,1,66,20.92a3.51,3.51,0,0,1,0-3.33,3.09,3.09,0,0,1,1.14-1.13,3.3,3.3,0,0,1,1.65-.4,3.37,3.37,0,0,1,1.66.4,3.09,3.09,0,0,1,1.14,1.13,3.59,3.59,0,0,1,0,3.33,2.93,2.93,0,0,1-1.15,1.14A3.27,3.27,0,0,1,68.83,22.48Zm0-.76A2.32,2.32,0,0,0,70,21.41a2.15,2.15,0,0,0,.83-.86,2.86,2.86,0,0,0,0-2.59,2.19,2.19,0,0,0-.83-.85A2.35,2.35,0,0,0,66.8,18a2.86,2.86,0,0,0,0,2.59,2.24,2.24,0,0,0,.84.86A2.27,2.27,0,0,0,68.83,21.72Z"/><path d="M73.78,22.42v-6.3h.82v1.72l-.13-.32a2.26,2.26,0,0,1,1-1.07A3,3,0,0,1,77,16.06a2.92,2.92,0,0,1,1.35.29,2.11,2.11,0,0,1,.91.89,3.14,3.14,0,0,1,.33,1.52v3.66h-.85V18.84a2.1,2.1,0,0,0-.5-1.51,1.87,1.87,0,0,0-1.4-.51,2.41,2.41,0,0,0-1.17.27,1.87,1.87,0,0,0-.77.78,2.6,2.6,0,0,0-.27,1.23v3.32Z"/><path d="M85.22,22.42V14H91v.76H86.11v7.64ZM86,18.85v-.77h4.44v.77Z"/><path d="M94.16,22.48a2.93,2.93,0,0,1-1.23-.24,1.74,1.74,0,0,1-.8-.65,1.76,1.76,0,0,1,0-1.84,1.58,1.58,0,0,1,.77-.65,3.34,3.34,0,0,1,1.43-.25h2.17v.64H94.31a1.91,1.91,0,0,0-1.26.32,1.06,1.06,0,0,0-.36.81,1,1,0,0,0,.42.86,1.88,1.88,0,0,0,1.18.32,2.27,2.27,0,0,0,1.24-.33,1.86,1.86,0,0,0,.76-.95l.2.59a2,2,0,0,1-.84,1A2.72,2.72,0,0,1,94.16,22.48Zm2.17-.06V21l0-.22V18.47a1.64,1.64,0,0,0-.45-1.24,1.84,1.84,0,0,0-1.33-.43,3.51,3.51,0,0,0-1.17.2,3,3,0,0,0-.93.54L92,16.91a3.55,3.55,0,0,1,1.15-.63,4.44,4.44,0,0,1,1.42-.22,2.71,2.71,0,0,1,1.89.6,2.4,2.4,0,0,1,.67,1.84v3.92Z"/><path d="M102.08,22.48a3.35,3.35,0,0,1-1.68-.42,2.93,2.93,0,0,1-1.15-1.14,3.51,3.51,0,0,1,0-3.33,3,3,0,0,1,1.15-1.13,3.45,3.45,0,0,1,1.68-.4,3.28,3.28,0,0,1,1.45.31,2.41,2.41,0,0,1,1,.93l-.64.44a1.94,1.94,0,0,0-.8-.71,2.43,2.43,0,0,0-1-.23,2.38,2.38,0,0,0-1.22.31A2.24,2.24,0,0,0,100,18a2.88,2.88,0,0,0,0,2.6,2.24,2.24,0,0,0,.85.85,2.38,2.38,0,0,0,1.22.31,2.43,2.43,0,0,0,1-.23,2,2,0,0,0,.8-.69l.64.43a2.41,2.41,0,0,1-1,.93A3.28,3.28,0,0,1,102.08,22.48Z"/><path d="M108.79,22.48a3.44,3.44,0,0,1-1.73-.42,2.92,2.92,0,0,1-1.17-1.14,3.25,3.25,0,0,1-.42-1.66,3.35,3.35,0,0,1,.41-1.66,2.91,2.91,0,0,1,1.1-1.13,3,3,0,0,1,1.58-.41,3.07,3.07,0,0,1,1.58.4,2.8,2.8,0,0,1,1.08,1.13,3.36,3.36,0,0,1,.4,1.67.62.62,0,0,1,0,.13v.13h-5.49v-.63h5l-.34.25a2.45,2.45,0,0,0-.29-1.22,2.16,2.16,0,0,0-2-1.13,2.32,2.32,0,0,0-1.17.3,2.09,2.09,0,0,0-.8.84,2.6,2.6,0,0,0-.29,1.23v.14a2.46,2.46,0,0,0,.32,1.26,2.15,2.15,0,0,0,.89.85,2.63,2.63,0,0,0,1.3.31,2.91,2.91,0,0,0,1.07-.2,2.23,2.23,0,0,0,.86-.63l.48.55a2.61,2.61,0,0,1-1,.77A3.47,3.47,0,0,1,108.79,22.48Z"/><path d="M113.36,22.42V13.51h.85V18l-.12,1.27.08,1.27v1.9Zm3.25.06a3,3,0,0,1-1.49-.38,2.63,2.63,0,0,1-1-1.1,3.61,3.61,0,0,1-.39-1.74,3.62,3.62,0,0,1,.39-1.75,2.73,2.73,0,0,1,1-1.08,3,3,0,0,1,1.48-.37,3.18,3.18,0,0,1,1.61.4,3,3,0,0,1,1.13,1.12,3.71,3.71,0,0,1,0,3.35,3,3,0,0,1-1.13,1.14A3.19,3.19,0,0,1,116.61,22.48Zm-.06-.76a2.28,2.28,0,0,0,1.2-.31,2.24,2.24,0,0,0,.84-.86,2.86,2.86,0,0,0,0-2.59,2.29,2.29,0,0,0-2-1.16,2.34,2.34,0,0,0-1.21.31,2.28,2.28,0,0,0-.84.85,2.95,2.95,0,0,0,0,2.59,2.24,2.24,0,0,0,.84.86A2.34,2.34,0,0,0,116.55,21.72Z"/><path d="M124.06,22.48a3.23,3.23,0,0,1-1.64-.42,3,3,0,0,1-1.14-1.14,3.51,3.51,0,0,1,0-3.33,3.09,3.09,0,0,1,1.14-1.13,3.6,3.6,0,0,1,3.3,0,3,3,0,0,1,1.14,1.13,3.51,3.51,0,0,1,0,3.33,2.84,2.84,0,0,1-1.14,1.14A3.28,3.28,0,0,1,124.06,22.48Zm0-.76a2.29,2.29,0,0,0,1.21-.31,2.17,2.17,0,0,0,.84-.86,2.95,2.95,0,0,0,0-2.59,2.21,2.21,0,0,0-.84-.85,2.28,2.28,0,0,0-1.2-.31,2.33,2.33,0,0,0-1.2.31A2.28,2.28,0,0,0,122,18a2.86,2.86,0,0,0,0,2.59,2.24,2.24,0,0,0,.84.86A2.3,2.3,0,0,0,124.06,21.72Z"/><path d="M131.59,22.48a3.2,3.2,0,0,1-1.64-.42,2.93,2.93,0,0,1-1.15-1.14,3.51,3.51,0,0,1,0-3.33,3.09,3.09,0,0,1,1.14-1.13,3.3,3.3,0,0,1,1.65-.4,3.37,3.37,0,0,1,1.66.4,3.09,3.09,0,0,1,1.14,1.13,3.59,3.59,0,0,1,0,3.33,2.93,2.93,0,0,1-1.15,1.14A3.27,3.27,0,0,1,131.59,22.48Zm0-.76a2.32,2.32,0,0,0,1.21-.31,2.15,2.15,0,0,0,.83-.86,2.86,2.86,0,0,0,0-2.59,2.19,2.19,0,0,0-.83-.85,2.35,2.35,0,0,0-3.24.85,2.86,2.86,0,0,0,0,2.59,2.24,2.24,0,0,0,.84.86A2.27,2.27,0,0,0,131.59,21.72Z"/><path d="M136.54,22.42V13.51h.85v8.91Zm.67-1.64,0-1.09,3.92-3.57h1.05l-2.78,2.65-.48.41Zm4.22,1.64-2.63-3.28.55-.66,3.12,3.94Z"/></g></g></svg>