<svg xmlns="http://www.w3.org/2000/svg" viewBox="0 0 157.69 35.5"><defs><style>.cls-1{fill:#fff;stroke:#000;stroke-linecap:round;stroke-linejoin:round;stroke-width:0.5px;}</style></defs><g id="Layer_2" data-name="Layer 2"><g id="Profile_Pages" data-name="Profile Pages"><rect class="cls-1" x="0.25" y="0.25" width="157.19" height="35" rx="5.65"/><path d="M51.93,22.56a5.38,5.38,0,0,1-1.79-.3,3.53,3.53,0,0,1-1.33-.79l.35-.68a3.59,3.59,0,0,0,1.19.72,4.23,4.23,0,0,0,1.58.3,3.56,3.56,0,0,0,1.29-.2,1.49,1.49,0,0,0,.73-.54,1.23,1.23,0,0,0,.24-.74,1.14,1.14,0,0,0-.28-.79,2.06,2.06,0,0,0-.74-.48,10.2,10.2,0,0,0-1-.3l-1.1-.28a4.63,4.63,0,0,1-1-.41,2,2,0,0,1-.74-.66A1.9,1.9,0,0,1,49,16.32a2.08,2.08,0,0,1,.33-1.14,2.25,2.25,0,0,1,1-.84A4.06,4.06,0,0,1,52.11,14a4.9,4.9,0,0,1,1.41.2,4,4,0,0,1,1.19.54l-.29.71a4,4,0,0,0-1.15-.53,4.41,4.41,0,0,0-1.17-.17,3.23,3.23,0,0,0-1.25.21,1.53,1.53,0,0,0-.72.54,1.33,1.33,0,0,0-.24.78,1.09,1.09,0,0,0,.28.79,1.89,1.89,0,0,0,.75.47,10.2,10.2,0,0,0,1,.3c.37.09.74.18,1.1.29a4.73,4.73,0,0,1,1,.4,2.11,2.11,0,0,1,.74.65,1.83,1.83,0,0,1,.28,1.07,2,2,0,0,1-.33,1.13,2.36,2.36,0,0,1-1,.84A4.12,4.12,0,0,1,51.93,22.56Z"/><path d="M56.82,22.49v-8.9h.85v4.33l-.17-.33a2.31,2.31,0,0,1,1-1.07,3.32,3.32,0,0,1,2.92-.1,2.13,2.13,0,0,1,.91.9,3.1,3.1,0,0,1,.33,1.51v3.66h-.85V18.91a2,2,0,0,0-.5-1.5,1.84,1.84,0,0,0-1.39-.51,2.41,2.41,0,0,0-1.17.27,1.81,1.81,0,0,0-.77.78,2.6,2.6,0,0,0-.27,1.23v3.31Z"/><path d="M66.7,22.55a3.1,3.1,0,0,1-1.23-.23,2,2,0,0,1-.8-.65,1.74,1.74,0,0,1-.27-1,1.82,1.82,0,0,1,.23-.89,1.73,1.73,0,0,1,.77-.65,3.56,3.56,0,0,1,1.44-.24H69v.63H66.86a1.88,1.88,0,0,0-1.27.33,1,1,0,0,0-.35.8,1,1,0,0,0,.42.86,1.86,1.86,0,0,0,1.18.33,2.27,2.27,0,0,0,1.24-.33,1.93,1.93,0,0,0,.76-1l.19.59a2,2,0,0,1-.83,1A2.78,2.78,0,0,1,66.7,22.55Zm2.18-.06V21.1l0-.23V18.54a1.62,1.62,0,0,0-.45-1.23,1.86,1.86,0,0,0-1.34-.44,3.22,3.22,0,0,0-1.16.21,2.79,2.79,0,0,0-.94.54L64.57,17a3.45,3.45,0,0,1,1.15-.63,4.43,4.43,0,0,1,1.41-.22,2.71,2.71,0,0,1,1.9.61,2.36,2.36,0,0,1,.66,1.84v3.91Z"/><path d="M72,22.49v-6.3h.81v1.72l-.08-.3a2,2,0,0,1,.89-1.1,2.93,2.93,0,0,1,1.54-.38V17H75a2,2,0,0,0-1.56.6,2.47,2.47,0,0,0-.56,1.72v3.22Z"/><path d="M79.34,22.55a3.57,3.57,0,0,1-1.73-.41A3,3,0,0,1,76.45,21a3.57,3.57,0,0,1,0-3.32,3,3,0,0,1,1.1-1.14,3.13,3.13,0,0,1,1.58-.41,3.07,3.07,0,0,1,1.58.4,2.87,2.87,0,0,1,1.08,1.13,3.36,3.36,0,0,1,.4,1.67.57.57,0,0,1,0,.13v.14H76.67V19h5l-.33.25a2.41,2.41,0,0,0-.3-1.21,2.09,2.09,0,0,0-.8-.84,2.2,2.2,0,0,0-1.16-.3,2.25,2.25,0,0,0-1.16.3,2,2,0,0,0-.81.84,2.61,2.61,0,0,0-.29,1.24v.13a2.52,2.52,0,0,0,.32,1.27,2.28,2.28,0,0,0,.89.85,3,3,0,0,0,2.38.1,2.25,2.25,0,0,0,.85-.62l.48.55a2.81,2.81,0,0,1-1,.77A3.65,3.65,0,0,1,79.34,22.55Z"/><path d="M89.62,22.55A3.33,3.33,0,0,1,88,22.14,3.12,3.12,0,0,1,86.84,21a3.29,3.29,0,0,1-.42-1.67,3.23,3.23,0,0,1,.42-1.66A3,3,0,0,1,88,16.54a3.53,3.53,0,0,1,3.3,0,2.88,2.88,0,0,1,1.14,1.13,3.23,3.23,0,0,1,.42,1.66A3.29,3.29,0,0,1,92.42,21a3,3,0,0,1-1.14,1.14A3.38,3.38,0,0,1,89.62,22.55Zm0-.76a2.39,2.39,0,0,0,1.21-.3,2.2,2.2,0,0,0,.84-.87,2.92,2.92,0,0,0,0-2.58,2.17,2.17,0,0,0-.84-.86,2.38,2.38,0,0,0-1.2-.31,2.44,2.44,0,0,0-1.2.31,2.24,2.24,0,0,0-.84.86,2.84,2.84,0,0,0,0,2.58,2.27,2.27,0,0,0,.84.87A2.39,2.39,0,0,0,89.62,21.79Z"/><path d="M94.58,22.49v-6.3h.81v1.73l-.13-.33a2.31,2.31,0,0,1,1-1.07,3,3,0,0,1,1.57-.39,3,3,0,0,1,1.35.29,2.16,2.16,0,0,1,.92.9,3.1,3.1,0,0,1,.33,1.51v3.66h-.86V18.91a2.07,2.07,0,0,0-.49-1.5,1.88,1.88,0,0,0-1.4-.51,2.41,2.41,0,0,0-1.17.27,1.87,1.87,0,0,0-.77.78,2.6,2.6,0,0,0-.27,1.23v3.31Z"/><path d="M106,22.49v-8.4h.74l3.84,6.55h-.39L114,14.09h.73v8.4h-.85V15.42h.2l-3.5,6h-.42l-3.53-6h.23v7.07Z"/><path d="M119.07,22.55a3.1,3.1,0,0,1-1.23-.23,1.93,1.93,0,0,1-.8-.65,1.74,1.74,0,0,1-.27-1,1.71,1.71,0,0,1,.23-.89,1.68,1.68,0,0,1,.77-.65,3.51,3.51,0,0,1,1.43-.24h2.17v.63h-2.14a1.88,1.88,0,0,0-1.27.33,1.09,1.09,0,0,0,.07,1.66,1.85,1.85,0,0,0,1.17.33,2.25,2.25,0,0,0,1.24-.33,1.9,1.9,0,0,0,.77-1l.19.59a2,2,0,0,1-.84,1A2.72,2.72,0,0,1,119.07,22.55Zm2.17-.06V21.1l0-.23V18.54a1.62,1.62,0,0,0-.45-1.23,1.86,1.86,0,0,0-1.34-.44,3.28,3.28,0,0,0-1.17.21,2.74,2.74,0,0,0-.93.54l-.39-.64a3.5,3.5,0,0,1,1.16-.63,4.38,4.38,0,0,1,1.41-.22,2.67,2.67,0,0,1,1.89.61,2.33,2.33,0,0,1,.67,1.84v3.91Z"/><path d="M124.81,14.8a.61.61,0,0,1-.45-.18.6.6,0,0,1-.18-.43.58.58,0,0,1,.18-.43.6.6,0,0,1,.45-.17.63.63,0,0,1,.44.16.58.58,0,0,1,.18.42.64.64,0,0,1-.17.45A.61.61,0,0,1,124.81,14.8Zm-.44,7.69v-6.3h.86v6.3Z"/><path d="M127.6,22.49v-8.9h.85v8.9Z"/><path d="M31.12,23.38a1.77,1.77,0,0,1-1.88-1.89V15.57a1.77,1.77,0,0,1,1.87-1.88h7.81a.39.39,0,0,0,.31-.12,2.66,2.66,0,0,1,3.79,0,2.69,2.69,0,0,1,0,3.82.36.36,0,0,0-.13.29c0,1.29,0,2.57,0,3.85A1.77,1.77,0,0,1,41,23.38Zm7.69-9.3H31a1.36,1.36,0,0,0-1,.4l.09.1c1.64,1.64,3.29,3.3,4.94,4.94a1.35,1.35,0,0,0,2,0c.69-.68,2.12-2.12,2.15-2.16A2.74,2.74,0,0,1,38.81,14.08Zm-5,4.77-3.77,3.78a1.41,1.41,0,0,0,1,.37h8.14c.64,0,1.28,0,1.92,0a1.33,1.33,0,0,0,.95-.38L38.3,18.83c-.29.29-.59.61-.9.91a1.77,1.77,0,0,1-2.68,0Zm-4.07-4a2.55,2.55,0,0,0-.11.33,4.9,4.9,0,0,0,0,.54v5.85a1.28,1.28,0,0,0,.15.69l3.7-3.7Zm11.36,3a2.31,2.31,0,1,0-2.3-2.31A2.31,2.31,0,0,0,41.13,17.77Zm1.37,0a2.68,2.68,0,0,1-2.94-.13l-.88.88,3.72,3.73c0-.24.1-.47.11-.7,0-1.2,0-2.39,0-3.59A1.34,1.34,0,0,0,42.5,17.78Z"/><path d="M40.81,15.48l.77.43s.11,0,.16,0a.48.48,0,1,1,.31.91.49.49,0,0,1-.61-.36.45.45,0,0,0-.15-.21c-.12-.09-.26-.14-.39-.22a.49.49,0,0,0-.47-.08.42.42,0,0,1-.49-.2.48.48,0,0,1,0-.55.46.46,0,0,1,.53-.16.31.31,0,0,0,.31,0l.32-.18c.16-.09.32-.16.37-.39a.43.43,0,0,1,.59-.27.48.48,0,0,1,.29.61.46.46,0,0,1-.6.29.29.29,0,0,0-.3,0l-.62.35S40.83,15.44,40.81,15.48Z"/></g></g></svg>