<svg xmlns="http://www.w3.org/2000/svg" xmlns:xlink="http://www.w3.org/1999/xlink" viewBox="0 0 400 541"><defs><style>.cls-1{fill:#2d2d2d;}.cls-2{fill:#04e373;}.cls-3{fill:#f2f2f2;}.cls-4{fill:url(#linear-gradient);}</style><linearGradient id="linear-gradient" x1="318.01" y1="79.38" x2="400.6" y2="8.79" gradientUnits="userSpaceOnUse"><stop offset="0" stop-color="#04e373"/><stop offset="1" stop-color="#003f1e"/></linearGradient></defs><g id="Layer_2" data-name="Layer 2"><g id="Create_Video_Distribution" data-name="Create Video Distribution"><rect class="cls-1" width="400" height="541" rx="37.38"/><path class="cls-2" d="M32.13,127.52a16.62,16.62,0,0,1,6.35-6.35,18,18,0,0,1,9-2.28,17.75,17.75,0,0,1,10.25,3,15.73,15.73,0,0,1,6.15,8.3h-8a8.42,8.42,0,0,0-3.38-3.75,9.92,9.92,0,0,0-5-1.25A10.36,10.36,0,0,0,42,126.62a9.8,9.8,0,0,0-3.7,4,14.71,14.71,0,0,0,0,12.18,9.76,9.76,0,0,0,3.7,4.05,10.35,10.35,0,0,0,5.43,1.42,9.73,9.73,0,0,0,5-1.27,8.5,8.5,0,0,0,3.38-3.78h8a15.6,15.6,0,0,1-6.13,8.33,17.83,17.83,0,0,1-10.27,3,18,18,0,0,1-9-2.27,16.71,16.71,0,0,1-6.35-6.33,19.44,19.44,0,0,1,0-18.42Z"/><path class="cls-2" d="M80.43,127.39a9.85,9.85,0,0,1,5-1.25v7.35H83.56a7.13,7.13,0,0,0-5,1.55q-1.67,1.56-1.67,5.4v13.8h-7v-27.7h7v4.3A9.94,9.94,0,0,1,80.43,127.39Z"/><path class="cls-2" d="M115.66,142.49H95.41a6.82,6.82,0,0,0,2.1,4.7,6.44,6.44,0,0,0,4.55,1.7,5.71,5.71,0,0,0,5.55-3.35h7.55a12.67,12.67,0,0,1-4.6,6.58,13.41,13.41,0,0,1-8.35,2.57A14.5,14.5,0,0,1,95,152.92a12.55,12.55,0,0,1-5-5,15.4,15.4,0,0,1-1.77-7.5,15.67,15.67,0,0,1,1.75-7.55,12.23,12.23,0,0,1,4.9-5,14.73,14.73,0,0,1,7.25-1.75,14.58,14.58,0,0,1,7.07,1.7,12,12,0,0,1,4.85,4.83,14.57,14.57,0,0,1,1.73,7.17A16.9,16.9,0,0,1,115.66,142.49Zm-7-4.7a5.58,5.58,0,0,0-2-4.32,6.94,6.94,0,0,0-4.65-1.63,6.37,6.37,0,0,0-4.38,1.58,6.91,6.91,0,0,0-2.17,4.37Z"/><path class="cls-2" d="M120.83,132.84a12.41,12.41,0,0,1,4.55-5,12.19,12.19,0,0,1,6.43-1.75,11.11,11.11,0,0,1,9.15,4.4v-4h7v27.7h-7v-4.05a10.47,10.47,0,0,1-3.73,3.23,11.38,11.38,0,0,1-5.47,1.27,11.78,11.78,0,0,1-6.38-1.8,12.68,12.68,0,0,1-4.55-5.07,16.37,16.37,0,0,1-1.67-7.53A16.12,16.12,0,0,1,120.83,132.84ZM140,136a7.07,7.07,0,0,0-2.7-2.8,7.24,7.24,0,0,0-3.65-1,7.12,7.12,0,0,0-3.6.95,7.25,7.25,0,0,0-2.68,2.78,8.73,8.73,0,0,0-1,4.32,9,9,0,0,0,1,4.38,7.42,7.42,0,0,0,2.7,2.87,6.85,6.85,0,0,0,3.58,1,7.23,7.23,0,0,0,3.65-1,7.07,7.07,0,0,0,2.7-2.8,10.07,10.07,0,0,0,0-8.75Z"/><path class="cls-2" d="M163,132.29v13.4a2.65,2.65,0,0,0,.67,2,3.31,3.31,0,0,0,2.28.62h3.25v5.9h-4.4q-8.85,0-8.85-8.6V132.29h-3.3v-5.75H156v-6.85h7v6.85h6.2v5.75Z"/><path class="cls-2" d="M199.81,142.49H179.56a6.82,6.82,0,0,0,2.1,4.7,6.44,6.44,0,0,0,4.55,1.7,5.71,5.71,0,0,0,5.55-3.35h7.55a12.67,12.67,0,0,1-4.6,6.58,13.41,13.41,0,0,1-8.35,2.57,14.5,14.5,0,0,1-7.18-1.77,12.42,12.42,0,0,1-5-5,15.4,15.4,0,0,1-1.77-7.5,15.67,15.67,0,0,1,1.75-7.55,12.23,12.23,0,0,1,4.9-5,14.73,14.73,0,0,1,7.25-1.75,14.58,14.58,0,0,1,7.07,1.7,12.06,12.06,0,0,1,4.85,4.83,14.57,14.57,0,0,1,1.73,7.17A16.9,16.9,0,0,1,199.81,142.49Zm-7.05-4.7a5.58,5.58,0,0,0-1.95-4.32,6.94,6.94,0,0,0-4.65-1.63,6.35,6.35,0,0,0-4.38,1.58,6.91,6.91,0,0,0-2.17,4.37Z"/><path class="cls-2" d="M49.51,276.24l-7.7-13.6h-3.3v13.6h-7v-34.9h13.1a15.3,15.3,0,0,1,6.9,1.43,9.92,9.92,0,0,1,4.27,3.85,10.83,10.83,0,0,1-.57,11.65,10.27,10.27,0,0,1-6,3.82l8.35,14.15Zm-11-18.85h5.85A5.84,5.84,0,0,0,48.61,256a5.14,5.14,0,0,0,1.4-3.83,4.88,4.88,0,0,0-1.4-3.72,6,6,0,0,0-4.25-1.33H38.51Z"/><path class="cls-2" d="M89.11,264.49H68.86a6.82,6.82,0,0,0,2.1,4.7,6.44,6.44,0,0,0,4.55,1.7,5.71,5.71,0,0,0,5.55-3.35h7.55a12.67,12.67,0,0,1-4.6,6.58,13.41,13.41,0,0,1-8.35,2.57,14.5,14.5,0,0,1-7.18-1.77,12.55,12.55,0,0,1-5-5,15.4,15.4,0,0,1-1.77-7.5,15.67,15.67,0,0,1,1.75-7.55,12.23,12.23,0,0,1,4.9-5,14.73,14.73,0,0,1,7.25-1.75,14.58,14.58,0,0,1,7.07,1.7,12,12,0,0,1,4.85,4.83,14.57,14.57,0,0,1,1.73,7.17A16.9,16.9,0,0,1,89.11,264.49Zm-7-4.7a5.55,5.55,0,0,0-2-4.32,6.94,6.94,0,0,0-4.65-1.63,6.37,6.37,0,0,0-4.38,1.58,6.91,6.91,0,0,0-2.17,4.37Z"/><path class="cls-2" d="M101.41,239.24v37h-7v-37Z"/><path class="cls-2" d="M133.86,264.49H113.61a6.82,6.82,0,0,0,2.1,4.7,6.44,6.44,0,0,0,4.55,1.7,5.71,5.71,0,0,0,5.55-3.35h7.55a12.67,12.67,0,0,1-4.6,6.58,13.41,13.41,0,0,1-8.35,2.57,14.5,14.5,0,0,1-7.18-1.77,12.55,12.55,0,0,1-5-5,15.4,15.4,0,0,1-1.77-7.5,15.67,15.67,0,0,1,1.75-7.55,12.23,12.23,0,0,1,4.9-5,14.73,14.73,0,0,1,7.25-1.75,14.58,14.58,0,0,1,7.07,1.7,12,12,0,0,1,4.85,4.83,14.57,14.57,0,0,1,1.73,7.17A16.9,16.9,0,0,1,133.86,264.49Zm-7.05-4.7a5.58,5.58,0,0,0-2-4.32,6.94,6.94,0,0,0-4.65-1.63,6.37,6.37,0,0,0-4.38,1.58,6.91,6.91,0,0,0-2.17,4.37Z"/><path class="cls-2" d="M139,254.84a12.41,12.41,0,0,1,4.55-5,12.19,12.19,0,0,1,6.43-1.75,11.11,11.11,0,0,1,9.15,4.4v-4h7.05v27.7h-7.05v-4.05a10.47,10.47,0,0,1-3.73,3.23,11.38,11.38,0,0,1-5.47,1.27,11.78,11.78,0,0,1-6.38-1.8,12.68,12.68,0,0,1-4.55-5.07,16.37,16.37,0,0,1-1.67-7.53A16.12,16.12,0,0,1,139,254.84ZM158.16,258a7.07,7.07,0,0,0-2.7-2.8,7.24,7.24,0,0,0-3.65-1,7,7,0,0,0-6.28,3.73,8.73,8.73,0,0,0-1,4.32,9,9,0,0,0,1,4.38,7.27,7.27,0,0,0,2.7,2.87,6.85,6.85,0,0,0,3.58,1,7.23,7.23,0,0,0,3.65-1,7.07,7.07,0,0,0,2.7-2.8,10.07,10.07,0,0,0,0-8.75Z"/><path class="cls-2" d="M177.56,275.47a10.84,10.84,0,0,1-4.28-3.33,8.42,8.42,0,0,1-1.72-4.65h7.05a3.8,3.8,0,0,0,1.57,2.65,5.49,5.49,0,0,0,3.43,1.05,5.26,5.26,0,0,0,3.12-.8,2.41,2.41,0,0,0,1.13-2.05,2.16,2.16,0,0,0-1.38-2,26.42,26.42,0,0,0-4.37-1.48,36.25,36.25,0,0,1-5.08-1.55,8.75,8.75,0,0,1-3.4-2.45,6.57,6.57,0,0,1-1.42-4.45,7.21,7.21,0,0,1,1.32-4.2,9,9,0,0,1,3.8-3,14.3,14.3,0,0,1,5.83-1.1,11.9,11.9,0,0,1,7.9,2.48,9.18,9.18,0,0,1,3.25,6.67h-6.7a3.61,3.61,0,0,0-1.38-2.62,5.12,5.12,0,0,0-3.27-1,5.22,5.22,0,0,0-2.93.7,2.24,2.24,0,0,0-1,2,2.28,2.28,0,0,0,1.4,2.13,21.86,21.86,0,0,0,4.35,1.47,37.42,37.42,0,0,1,5,1.55,8.78,8.78,0,0,1,3.37,2.48,6.83,6.83,0,0,1,1.48,4.42,7.35,7.35,0,0,1-1.33,4.3,8.72,8.72,0,0,1-3.8,3,14.32,14.32,0,0,1-5.77,1.07A14.54,14.54,0,0,1,177.56,275.47Z"/><path class="cls-2" d="M225.86,264.49H205.61a6.82,6.82,0,0,0,2.1,4.7,6.44,6.44,0,0,0,4.55,1.7,5.71,5.71,0,0,0,5.55-3.35h7.55a12.67,12.67,0,0,1-4.6,6.58,13.41,13.41,0,0,1-8.35,2.57,14.5,14.5,0,0,1-7.18-1.77,12.42,12.42,0,0,1-4.95-5,15.4,15.4,0,0,1-1.77-7.5,15.67,15.67,0,0,1,1.75-7.55,12.23,12.23,0,0,1,4.9-5,14.73,14.73,0,0,1,7.25-1.75,14.58,14.58,0,0,1,7.07,1.7,12.06,12.06,0,0,1,4.85,4.83,14.57,14.57,0,0,1,1.73,7.17A16.9,16.9,0,0,1,225.86,264.49Zm-7.05-4.7a5.58,5.58,0,0,0-1.95-4.32,6.94,6.94,0,0,0-4.65-1.63,6.35,6.35,0,0,0-4.38,1.58,6.91,6.91,0,0,0-2.17,4.37Z"/><path class="cls-2" d="M85.33,168.48,64.85,224.32H51.25L30.77,168.48h12l15.36,44.4,15.28-44.4Z"/><path class="cls-2" d="M92.81,172.84a6.57,6.57,0,0,1,0-9.36,7.38,7.38,0,0,1,9.84,0,6.57,6.57,0,0,1,0,9.36,7.38,7.38,0,0,1-9.84,0ZM103.25,180v44.32H92.05V180Z"/><path class="cls-2" d="M114.09,190.08a19.32,19.32,0,0,1,17.64-10.8,18.72,18.72,0,0,1,8.24,1.88,16.49,16.49,0,0,1,6.24,5v-21h11.36v59.2H146.21v-6.56a15.28,15.28,0,0,1-5.84,5.28,18.33,18.33,0,0,1-8.72,2,19,19,0,0,1-10.24-2.88,20.12,20.12,0,0,1-7.32-8.12,26.06,26.06,0,0,1-2.68-12A25.59,25.59,0,0,1,114.09,190.08Zm30.6,5.08a11.3,11.3,0,0,0-4.32-4.48,11.54,11.54,0,0,0-5.84-1.56,11.25,11.25,0,0,0-10,6,13.92,13.92,0,0,0-1.64,6.92,14.42,14.42,0,0,0,1.64,7,11.78,11.78,0,0,0,4.32,4.6,11,11,0,0,0,5.72,1.6,11.54,11.54,0,0,0,5.84-1.56,11.37,11.37,0,0,0,4.32-4.48,16.11,16.11,0,0,0,0-14Z"/><path class="cls-2" d="M209.41,205.52H177a11,11,0,0,0,3.36,7.52,10.37,10.37,0,0,0,7.28,2.72,9.15,9.15,0,0,0,8.88-5.36h12.08a20.27,20.27,0,0,1-7.36,10.52A21.54,21.54,0,0,1,187.89,225a23.13,23.13,0,0,1-11.48-2.84,20,20,0,0,1-7.92-8,24.58,24.58,0,0,1-2.84-12,25,25,0,0,1,2.8-12.08,19.44,19.44,0,0,1,7.84-8,25.17,25.17,0,0,1,22.92-.08,19.1,19.1,0,0,1,7.76,7.72,23.35,23.35,0,0,1,2.76,11.48A26.81,26.81,0,0,1,209.41,205.52ZM198.13,198a8.92,8.92,0,0,0-3.12-6.92,11,11,0,0,0-7.44-2.6,10.15,10.15,0,0,0-7,2.52,11,11,0,0,0-3.48,7Z"/><path class="cls-2" d="M226.05,222.2a20.45,20.45,0,0,1-8-8,24.07,24.07,0,0,1-2.92-12,23.55,23.55,0,0,1,3-12,20.78,20.78,0,0,1,8.2-8,25.11,25.11,0,0,1,23.2,0,20.85,20.85,0,0,1,8.2,8,23.55,23.55,0,0,1,3,12,23.15,23.15,0,0,1-3.08,12,21.49,21.49,0,0,1-8.32,8A24.25,24.25,0,0,1,237.57,225,23.36,23.36,0,0,1,226.05,222.2Zm17.24-8.4a10.86,10.86,0,0,0,4.28-4.44,15.08,15.08,0,0,0,1.6-7.2q0-6.33-3.32-9.72a10.91,10.91,0,0,0-8.12-3.4,10.64,10.64,0,0,0-8,3.4q-3.24,3.39-3.24,9.72t3.16,9.72a10.42,10.42,0,0,0,8,3.4A11.75,11.75,0,0,0,243.29,213.8Z"/><path class="cls-3" d="M41.19,325.14a6.29,6.29,0,0,1,2.58,2.45,7.28,7.28,0,0,1,.91,3.7,7.19,7.19,0,0,1-.91,3.67,6.22,6.22,0,0,1-2.58,2.42,8.24,8.24,0,0,1-3.87.87H32.44v-14h4.88A8.36,8.36,0,0,1,41.19,325.14Zm-.57,9.52a4.55,4.55,0,0,0,1.2-3.37,4.69,4.69,0,0,0-1.2-3.42,4.53,4.53,0,0,0-3.4-1.23h-2v9.22h2A4.59,4.59,0,0,0,40.62,334.66Z"/><path class="cls-3" d="M47,325.37A1.63,1.63,0,0,1,47,323a1.82,1.82,0,0,1,2.46,0,1.63,1.63,0,0,1,0,2.33,1.84,1.84,0,0,1-2.46,0Zm2.61,1.79v11.09h-2.8V327.16Z"/><path class="cls-3" d="M54.14,337.93a4.25,4.25,0,0,1-1.71-1.33,3.37,3.37,0,0,1-.69-1.85h2.82a1.51,1.51,0,0,0,.63,1.05,2.19,2.19,0,0,0,1.37.42,2.09,2.09,0,0,0,1.25-.32,1,1,0,0,0,.45-.82.87.87,0,0,0-.55-.81,11.12,11.12,0,0,0-1.75-.59,14,14,0,0,1-2-.62,3.47,3.47,0,0,1-1.36-1A2.62,2.62,0,0,1,52,330.3a2.91,2.91,0,0,1,.53-1.68,3.64,3.64,0,0,1,1.52-1.2,5.73,5.73,0,0,1,2.33-.44,4.76,4.76,0,0,1,3.16,1,3.66,3.66,0,0,1,1.3,2.67H58.16a1.46,1.46,0,0,0-.55-1.05,2,2,0,0,0-1.31-.38,2.11,2.11,0,0,0-1.17.27.89.89,0,0,0-.41.78.91.91,0,0,0,.56.85,8.65,8.65,0,0,0,1.74.6,14,14,0,0,1,2,.61,3.64,3.64,0,0,1,1.35,1,2.71,2.71,0,0,1,.59,1.77,2.94,2.94,0,0,1-.53,1.72,3.49,3.49,0,0,1-1.52,1.2,5.88,5.88,0,0,1-2.31.42A5.78,5.78,0,0,1,54.14,337.93Z"/><path class="cls-3" d="M66.5,329.46v5.36a1,1,0,0,0,.27.81,1.3,1.3,0,0,0,.91.25H69v2.37H67.22q-3.54,0-3.54-3.45v-5.34H62.36v-2.3h1.32v-2.74H66.5v2.74H69v2.3Z"/><path class="cls-3" d="M75.21,327.5a4,4,0,0,1,2-.5v2.94h-.74a2.34,2.34,0,0,0-2.66,2.78v5.53H71V327.16h2.8v1.72A4,4,0,0,1,75.21,327.5Z"/><path class="cls-3" d="M79.27,325.37a1.63,1.63,0,0,1,0-2.33,1.67,1.67,0,0,1,1.23-.48,1.7,1.7,0,0,1,1.23.48,1.63,1.63,0,0,1,0,2.33,1.69,1.69,0,0,1-1.23.47A1.66,1.66,0,0,1,79.27,325.37Zm2.61,1.79v11.09h-2.8V327.16Z"/><path class="cls-3" d="M88.93,327.48a4.6,4.6,0,0,1,2.17-.5,4.93,4.93,0,0,1,2.57.7,5,5,0,0,1,1.82,2,7.05,7.05,0,0,1,0,6,5.16,5.16,0,0,1-1.82,2,4.85,4.85,0,0,1-2.57.71,4.54,4.54,0,0,1-2.17-.49,4.12,4.12,0,0,1-1.49-1.27v1.59h-2.8V323.44h2.8v5.35A4,4,0,0,1,88.93,327.48Zm4,3.45a3,3,0,0,0-1.08-1.11,2.93,2.93,0,0,0-1.45-.38,2.77,2.77,0,0,0-1.43.39A2.87,2.87,0,0,0,87.85,331a3.51,3.51,0,0,0-.41,1.75,3.43,3.43,0,0,0,.41,1.73,2.81,2.81,0,0,0,1.08,1.13,2.82,2.82,0,0,0,2.88,0,3,3,0,0,0,1.08-1.14,3.6,3.6,0,0,0,.41-1.76A3.54,3.54,0,0,0,92.89,330.93Z"/><path class="cls-3" d="M108.66,327.16v11.09h-2.82v-1.41a3.67,3.67,0,0,1-1.41,1.13,4.28,4.28,0,0,1-1.89.41,4.63,4.63,0,0,1-2.3-.55,3.78,3.78,0,0,1-1.57-1.62,5.33,5.33,0,0,1-.57-2.55v-6.5h2.8v6.1a2.87,2.87,0,0,0,.66,2,2.31,2.31,0,0,0,1.8.71,2.34,2.34,0,0,0,1.82-.71,2.87,2.87,0,0,0,.66-2v-6.1Z"/><path class="cls-3" d="M114.68,329.46v5.36a1,1,0,0,0,.27.81,1.3,1.3,0,0,0,.91.25h1.3v2.37H115.4q-3.54,0-3.54-3.45v-5.34h-1.32v-2.3h1.32v-2.74h2.82v2.74h2.48v2.3Z"/><path class="cls-3" d="M129.4,333.54h-8.1a2.69,2.69,0,0,0,.84,1.88,2.56,2.56,0,0,0,1.82.68,2.28,2.28,0,0,0,2.22-1.34h3a5,5,0,0,1-1.84,2.63,5.36,5.36,0,0,1-3.34,1,5.68,5.68,0,0,1-2.87-.71,5,5,0,0,1-2-2,6.1,6.1,0,0,1-.71-3,6.28,6.28,0,0,1,.7-3,4.9,4.9,0,0,1,2-2,6.29,6.29,0,0,1,5.73,0,4.87,4.87,0,0,1,1.94,1.93,5.86,5.86,0,0,1,.69,2.87A7,7,0,0,1,129.4,333.54Zm-2.82-1.88a2.27,2.27,0,0,0-.78-1.73,2.79,2.79,0,0,0-1.86-.64,2.56,2.56,0,0,0-1.75.62,2.72,2.72,0,0,0-.87,1.75Z"/><path class="cls-3" d="M146.88,327.16,140,343.48h-3l2.4-5.52L135,327.16h3.14L141,334.9l2.9-7.74Z"/><path class="cls-3" d="M150.42,337.71a5,5,0,0,1-2-2,6,6,0,0,1-.73-3,5.86,5.86,0,0,1,.75-3,5.24,5.24,0,0,1,2-2,6.28,6.28,0,0,1,5.8,0,5.3,5.3,0,0,1,2.05,2,6.3,6.3,0,0,1,0,6,5.4,5.4,0,0,1-2.08,2,6,6,0,0,1-2.93.71A5.75,5.75,0,0,1,150.42,337.71Zm4.31-2.1a2.67,2.67,0,0,0,1.07-1.11,3.79,3.79,0,0,0,.4-1.79,3.37,3.37,0,0,0-.83-2.44,2.76,2.76,0,0,0-2-.85,2.69,2.69,0,0,0-2,.85,4.09,4.09,0,0,0,0,4.86,2.58,2.58,0,0,0,2,.85A2.9,2.9,0,0,0,154.73,335.61Z"/><path class="cls-3" d="M171.6,327.16v11.09h-2.82v-1.41a3.67,3.67,0,0,1-1.41,1.13,4.28,4.28,0,0,1-1.89.41,4.63,4.63,0,0,1-2.3-.55,3.78,3.78,0,0,1-1.57-1.62,5.33,5.33,0,0,1-.57-2.55v-6.5h2.8v6.1a2.87,2.87,0,0,0,.66,2,2.31,2.31,0,0,0,1.8.71,2.34,2.34,0,0,0,1.82-.71,2.87,2.87,0,0,0,.66-2v-6.1Z"/><path class="cls-3" d="M178.57,327.5a4,4,0,0,1,2-.5v2.94h-.74a2.34,2.34,0,0,0-2.66,2.78v5.53h-2.8V327.16h2.8v1.72A4,4,0,0,1,178.57,327.5Z"/><path class="cls-3" d="M204.25,328.25a4.76,4.76,0,0,1,1.25,3.5v6.5h-2.8v-6.13a2.78,2.78,0,0,0-.66-2,2.71,2.71,0,0,0-3.61,0,2.74,2.74,0,0,0-.67,2v6.13H195v-6.13a2.78,2.78,0,0,0-.66-2,2.37,2.37,0,0,0-1.8-.69,2.41,2.41,0,0,0-1.83.69,2.74,2.74,0,0,0-.67,2v6.13h-2.8V327.16H190v1.34a3.8,3.8,0,0,1,1.39-1.1,4.41,4.41,0,0,1,1.87-.4,4.91,4.91,0,0,1,2.32.55,3.91,3.91,0,0,1,1.58,1.57,4,4,0,0,1,1.57-1.54A4.52,4.52,0,0,1,201,327,4.47,4.47,0,0,1,204.25,328.25Z"/><path class="cls-3" d="M218.62,327.16v11.09H215.8v-1.41a3.67,3.67,0,0,1-1.41,1.13,4.28,4.28,0,0,1-1.89.41,4.63,4.63,0,0,1-2.3-.55,3.78,3.78,0,0,1-1.57-1.62,5.33,5.33,0,0,1-.57-2.55v-6.5h2.8v6.1a2.87,2.87,0,0,0,.66,2,2.31,2.31,0,0,0,1.8.71,2.34,2.34,0,0,0,1.82-.71,2.87,2.87,0,0,0,.66-2v-6.1Z"/><path class="cls-3" d="M223.18,337.93a4.25,4.25,0,0,1-1.71-1.33,3.37,3.37,0,0,1-.69-1.85h2.82a1.51,1.51,0,0,0,.63,1.05,2.17,2.17,0,0,0,1.37.42,2.09,2.09,0,0,0,1.25-.32,1,1,0,0,0,.45-.82.88.88,0,0,0-.55-.81,11.12,11.12,0,0,0-1.75-.59,13.57,13.57,0,0,1-2-.62,3.47,3.47,0,0,1-1.36-1,2.62,2.62,0,0,1-.57-1.78,2.84,2.84,0,0,1,.53-1.68,3.64,3.64,0,0,1,1.52-1.2,5.73,5.73,0,0,1,2.33-.44,4.76,4.76,0,0,1,3.16,1,3.69,3.69,0,0,1,1.3,2.67H227.2a1.49,1.49,0,0,0-.55-1.05,2.06,2.06,0,0,0-1.31-.38,2.11,2.11,0,0,0-1.17.27.89.89,0,0,0-.41.78.9.9,0,0,0,.56.85,8.65,8.65,0,0,0,1.74.6,14,14,0,0,1,2,.61,3.64,3.64,0,0,1,1.35,1,2.77,2.77,0,0,1,.59,1.77,2.94,2.94,0,0,1-.53,1.72,3.55,3.55,0,0,1-1.52,1.2,5.88,5.88,0,0,1-2.31.42A5.78,5.78,0,0,1,223.18,337.93Z"/><path class="cls-3" d="M232.47,325.37a1.63,1.63,0,0,1,0-2.33,1.67,1.67,0,0,1,1.23-.48,1.7,1.7,0,0,1,1.23.48,1.63,1.63,0,0,1,0,2.33,1.69,1.69,0,0,1-1.23.47A1.66,1.66,0,0,1,232.47,325.37Zm2.61,1.79v11.09h-2.8V327.16Z"/><path class="cls-3" d="M237.82,329.69a5,5,0,0,1,1.94-2,5.62,5.62,0,0,1,2.84-.71,5.51,5.51,0,0,1,3.41,1,5,5,0,0,1,1.81,2.89h-3a2.24,2.24,0,0,0-.81-1.13,2.37,2.37,0,0,0-1.41-.41,2.3,2.3,0,0,0-1.9.87,3.85,3.85,0,0,0-.7,2.48,3.77,3.77,0,0,0,.7,2.44,2.3,2.3,0,0,0,1.9.87,2.12,2.12,0,0,0,2.22-1.52h3a5.11,5.11,0,0,1-1.82,2.86,5.35,5.35,0,0,1-3.4,1.06,5.52,5.52,0,0,1-2.84-.71,4.92,4.92,0,0,1-1.94-2,6.82,6.82,0,0,1,0-6Z"/><path class="cls-3" d="M259.26,335.66l2.8-8.5h3l-4.1,11.09h-3.4l-4.08-11.09h3Z"/><path class="cls-3" d="M266.81,325.37a1.63,1.63,0,0,1,0-2.33,1.67,1.67,0,0,1,1.23-.48,1.7,1.7,0,0,1,1.23.48,1.63,1.63,0,0,1,0,2.33,1.69,1.69,0,0,1-1.23.47A1.66,1.66,0,0,1,266.81,325.37Zm2.61,1.79v11.09h-2.8V327.16Z"/><path class="cls-3" d="M272.13,329.68a4.86,4.86,0,0,1,1.83-2,4.94,4.94,0,0,1,2.58-.7,4.65,4.65,0,0,1,2.06.48,4,4,0,0,1,1.56,1.25v-5.27H283v14.81h-2.84V336.6a3.81,3.81,0,0,1-1.46,1.32,4.52,4.52,0,0,1-2.18.5,4.81,4.81,0,0,1-2.56-.71,5,5,0,0,1-1.83-2,6.45,6.45,0,0,1-.67-3A6.38,6.38,0,0,1,272.13,329.68Zm7.65,1.28a2.87,2.87,0,0,0-1.08-1.13,2.9,2.9,0,0,0-1.46-.39,2.87,2.87,0,0,0-1.44.38,2.93,2.93,0,0,0-1.07,1.11,3.43,3.43,0,0,0-.41,1.73,3.51,3.51,0,0,0,.41,1.75,2.86,2.86,0,0,0,1.08,1.15,2.69,2.69,0,0,0,1.43.4,2.88,2.88,0,0,0,2.54-1.5,3.71,3.71,0,0,0,.4-1.75A3.62,3.62,0,0,0,279.78,331Z"/><path class="cls-3" d="M296,333.54h-8.1a2.69,2.69,0,0,0,.84,1.88,2.56,2.56,0,0,0,1.82.68,2.28,2.28,0,0,0,2.22-1.34h3a5,5,0,0,1-1.84,2.63,5.36,5.36,0,0,1-3.34,1,5.68,5.68,0,0,1-2.87-.71,5,5,0,0,1-2-2,6.1,6.1,0,0,1-.71-3,6.28,6.28,0,0,1,.7-3,4.9,4.9,0,0,1,2-2,6.29,6.29,0,0,1,5.73,0,4.87,4.87,0,0,1,1.94,1.93,5.86,5.86,0,0,1,.69,2.87A7,7,0,0,1,296,333.54Zm-2.82-1.88a2.27,2.27,0,0,0-.78-1.73,2.79,2.79,0,0,0-1.86-.64,2.56,2.56,0,0,0-1.75.62,2.72,2.72,0,0,0-.87,1.75Z"/><path class="cls-3" d="M300.12,337.71a5,5,0,0,1-2-2,6,6,0,0,1-.73-3,5.86,5.86,0,0,1,.75-3,5.24,5.24,0,0,1,2.05-2,6.28,6.28,0,0,1,5.8,0,5.3,5.3,0,0,1,2,2,6.3,6.3,0,0,1,0,6,5.4,5.4,0,0,1-2.08,2,6,6,0,0,1-2.93.71A5.75,5.75,0,0,1,300.12,337.71Zm4.31-2.1a2.67,2.67,0,0,0,1.07-1.11,3.79,3.79,0,0,0,.4-1.79,3.37,3.37,0,0,0-.83-2.44,2.76,2.76,0,0,0-2-.85,2.69,2.69,0,0,0-2,.85,4.09,4.09,0,0,0,0,4.86,2.58,2.58,0,0,0,2,.85A2.9,2.9,0,0,0,304.43,335.61Z"/><path class="cls-3" d="M312.64,337.93a4.25,4.25,0,0,1-1.71-1.33,3.31,3.31,0,0,1-.7-1.85h2.83a1.51,1.51,0,0,0,.63,1.05,2.17,2.17,0,0,0,1.37.42,2.11,2.11,0,0,0,1.25-.32,1,1,0,0,0,.44-.82.87.87,0,0,0-.54-.81,11.5,11.5,0,0,0-1.75-.59,13.57,13.57,0,0,1-2-.62,3.57,3.57,0,0,1-1.37-1,2.67,2.67,0,0,1-.56-1.78,2.9,2.9,0,0,1,.52-1.68,3.77,3.77,0,0,1,1.52-1.2,5.81,5.81,0,0,1,2.34-.44,4.76,4.76,0,0,1,3.16,1,3.68,3.68,0,0,1,1.29,2.67h-2.67a1.47,1.47,0,0,0-.56-1.05,2,2,0,0,0-1.31-.38,2.09,2.09,0,0,0-1.16.27.89.89,0,0,0-.42.78.91.91,0,0,0,.56.85,9,9,0,0,0,1.75.6,14.41,14.41,0,0,1,2,.61,3.72,3.72,0,0,1,1.35,1,2.77,2.77,0,0,1,.59,1.77,2.94,2.94,0,0,1-.53,1.72,3.61,3.61,0,0,1-1.52,1.2,5.88,5.88,0,0,1-2.31.42A5.75,5.75,0,0,1,312.64,337.93Z"/><path class="cls-3" d="M47.8,351.16l-3.24,11.09h-3l-2-7.75-2,7.75h-3L31.2,351.16H34l2,8.44,2.12-8.44h3l2.08,8.42,2-8.42Z"/><path class="cls-3" d="M51.36,361.71a5,5,0,0,1-2-2,6,6,0,0,1-.73-3,5.86,5.86,0,0,1,.75-3,5.24,5.24,0,0,1,2.05-2,6.28,6.28,0,0,1,5.8,0,5.3,5.3,0,0,1,2.05,2,6.3,6.3,0,0,1,0,6,5.4,5.4,0,0,1-2.08,2,6,6,0,0,1-2.93.71A5.75,5.75,0,0,1,51.36,361.71Zm4.31-2.1a2.61,2.61,0,0,0,1.07-1.11,3.79,3.79,0,0,0,.4-1.79,3.37,3.37,0,0,0-.83-2.44,2.76,2.76,0,0,0-2-.85,2.69,2.69,0,0,0-2,.85,4.09,4.09,0,0,0,0,4.86,2.58,2.58,0,0,0,2,.85A2.88,2.88,0,0,0,55.67,359.61Z"/><path class="cls-3" d="M66.29,351.5a4,4,0,0,1,2-.5v2.94h-.74a2.34,2.34,0,0,0-2.66,2.78v5.53h-2.8V351.16h2.8v1.72A4,4,0,0,1,66.29,351.5Z"/><path class="cls-3" d="M73,347.44v14.81h-2.8V347.44Z"/><path class="cls-3" d="M75.67,353.68a4.86,4.86,0,0,1,1.83-2,4.94,4.94,0,0,1,2.58-.7,4.65,4.65,0,0,1,2.06.48,4,4,0,0,1,1.56,1.25v-5.27h2.84v14.81H83.7V360.6a3.81,3.81,0,0,1-1.46,1.32,4.52,4.52,0,0,1-2.18.5,4.81,4.81,0,0,1-2.56-.71,5,5,0,0,1-1.83-2,6.45,6.45,0,0,1-.67-3A6.38,6.38,0,0,1,75.67,353.68ZM83.32,355a2.87,2.87,0,0,0-1.08-1.13,2.9,2.9,0,0,0-1.46-.39,2.87,2.87,0,0,0-1.44.38,2.93,2.93,0,0,0-1.07,1.11,3.43,3.43,0,0,0-.41,1.73,3.51,3.51,0,0,0,.41,1.75,2.86,2.86,0,0,0,1.08,1.15,2.69,2.69,0,0,0,1.43.4,2.88,2.88,0,0,0,2.54-1.5,3.71,3.71,0,0,0,.4-1.75A3.62,3.62,0,0,0,83.32,355Z"/><path class="cls-3" d="M104.64,351.16l-3.24,11.09h-3l-2-7.75-2,7.75h-3L88,351.16h2.84l2,8.44L95,351.16h3l2.08,8.42,2-8.42Z"/><path class="cls-3" d="M106.35,349.37a1.63,1.63,0,0,1,0-2.33,1.67,1.67,0,0,1,1.23-.48,1.7,1.7,0,0,1,1.23.48,1.63,1.63,0,0,1,0,2.33,1.69,1.69,0,0,1-1.23.47A1.66,1.66,0,0,1,106.35,349.37Zm2.61,1.79v11.09h-2.8V351.16Z"/><path class="cls-3" d="M111.67,353.68a4.86,4.86,0,0,1,1.83-2,4.94,4.94,0,0,1,2.58-.7,4.65,4.65,0,0,1,2.06.48,4,4,0,0,1,1.56,1.25v-5.27h2.84v14.81H119.7V360.6a3.81,3.81,0,0,1-1.46,1.32,4.52,4.52,0,0,1-2.18.5,4.81,4.81,0,0,1-2.56-.71,5,5,0,0,1-1.83-2,6.45,6.45,0,0,1-.67-3A6.38,6.38,0,0,1,111.67,353.68Zm7.65,1.28a2.87,2.87,0,0,0-1.08-1.13,2.9,2.9,0,0,0-1.46-.39,2.87,2.87,0,0,0-1.44.38,2.93,2.93,0,0,0-1.07,1.11,3.43,3.43,0,0,0-.41,1.73,3.51,3.51,0,0,0,.41,1.75,2.86,2.86,0,0,0,1.08,1.15,2.69,2.69,0,0,0,1.43.4,2.88,2.88,0,0,0,2.54-1.5,3.71,3.71,0,0,0,.4-1.75A3.62,3.62,0,0,0,119.32,355Z"/><path class="cls-3" d="M135.5,357.54h-8.1a2.69,2.69,0,0,0,.84,1.88,2.56,2.56,0,0,0,1.82.68,2.28,2.28,0,0,0,2.22-1.34h3a5,5,0,0,1-1.84,2.63,5.36,5.36,0,0,1-3.34,1,5.68,5.68,0,0,1-2.87-.71,5,5,0,0,1-2-2,6.1,6.1,0,0,1-.71-3,6.28,6.28,0,0,1,.7-3,4.9,4.9,0,0,1,2-2,6.29,6.29,0,0,1,5.73,0,4.87,4.87,0,0,1,1.94,1.93,5.86,5.86,0,0,1,.69,2.87A7,7,0,0,1,135.5,357.54Zm-2.82-1.88a2.27,2.27,0,0,0-.78-1.73,2.79,2.79,0,0,0-1.86-.64,2.56,2.56,0,0,0-1.75.62,2.72,2.72,0,0,0-.87,1.75Z"/><path class="cls-3" d="M145.64,353.46v5.36a1,1,0,0,0,.27.81,1.3,1.3,0,0,0,.91.25h1.3v2.37h-1.76q-3.54,0-3.54-3.45v-5.34H141.5v-2.3h1.32v-2.74h2.82v2.74h2.48v2.3Z"/><path class="cls-3" d="M152.18,361.71a5,5,0,0,1-2-2,6,6,0,0,1-.73-3,5.86,5.86,0,0,1,.75-3,5.24,5.24,0,0,1,2.05-2,6.28,6.28,0,0,1,5.8,0,5.3,5.3,0,0,1,2.05,2,6.3,6.3,0,0,1,0,6,5.4,5.4,0,0,1-2.08,2,6,6,0,0,1-2.93.71A5.75,5.75,0,0,1,152.18,361.71Zm4.31-2.1a2.67,2.67,0,0,0,1.07-1.11,3.79,3.79,0,0,0,.4-1.79,3.37,3.37,0,0,0-.83-2.44,2.76,2.76,0,0,0-2-.85,2.69,2.69,0,0,0-2,.85,4.09,4.09,0,0,0,0,4.86,2.58,2.58,0,0,0,2,.85A2.9,2.9,0,0,0,156.49,359.61Z"/><path class="cls-3" d="M170.92,353.46v5.36a1,1,0,0,0,.27.81,1.3,1.3,0,0,0,.91.25h1.3v2.37h-1.76q-3.54,0-3.54-3.45v-5.34h-1.32v-2.3h1.32v-2.74h2.82v2.74h2.48v2.3Z"/><path class="cls-3" d="M177.46,361.71a5,5,0,0,1-2-2,6,6,0,0,1-.73-3,5.86,5.86,0,0,1,.75-3,5.24,5.24,0,0,1,2.05-2,6.28,6.28,0,0,1,5.8,0,5.3,5.3,0,0,1,2.05,2,6.3,6.3,0,0,1,0,6,5.4,5.4,0,0,1-2.08,2,6,6,0,0,1-2.93.71A5.75,5.75,0,0,1,177.46,361.71Zm4.31-2.1a2.67,2.67,0,0,0,1.07-1.11,3.79,3.79,0,0,0,.4-1.79,3.37,3.37,0,0,0-.83-2.44,2.76,2.76,0,0,0-2-.85,2.69,2.69,0,0,0-2,.85,4.09,4.09,0,0,0,0,4.86,2.58,2.58,0,0,0,2,.85A2.9,2.9,0,0,0,181.77,359.61Z"/><path class="cls-3" d="M192.47,351.5a4.38,4.38,0,0,1,2.17-.52,4.93,4.93,0,0,1,2.57.7,5,5,0,0,1,1.82,2,7.05,7.05,0,0,1,0,6,5.16,5.16,0,0,1-1.82,2,4.85,4.85,0,0,1-2.57.71,4.38,4.38,0,0,1-2.15-.5,4.47,4.47,0,0,1-1.51-1.26v6.86h-2.8V351.16H191v1.6A4.14,4.14,0,0,1,192.47,351.5Zm4,3.43a3,3,0,0,0-1.08-1.11,2.93,2.93,0,0,0-1.45-.38,2.77,2.77,0,0,0-1.43.39,2.87,2.87,0,0,0-1.08,1.13,3.51,3.51,0,0,0-.41,1.75,3.43,3.43,0,0,0,.41,1.73,2.81,2.81,0,0,0,1.08,1.13,2.82,2.82,0,0,0,2.88,0,3,3,0,0,0,1.08-1.14,3.6,3.6,0,0,0,.41-1.76A3.54,3.54,0,0,0,196.43,354.93Z"/><path class="cls-3" d="M223.55,352.25a4.76,4.76,0,0,1,1.25,3.5v6.5H222v-6.13a2.78,2.78,0,0,0-.66-2,2.71,2.71,0,0,0-3.61,0,2.74,2.74,0,0,0-.67,2v6.13h-2.8v-6.13a2.78,2.78,0,0,0-.66-2,2.37,2.37,0,0,0-1.8-.69,2.41,2.41,0,0,0-1.83.69,2.74,2.74,0,0,0-.67,2v6.13h-2.8V351.16h2.8v1.34a3.8,3.8,0,0,1,1.39-1.1,4.41,4.41,0,0,1,1.87-.4,4.91,4.91,0,0,1,2.32.55,3.91,3.91,0,0,1,1.58,1.57,4,4,0,0,1,1.57-1.54,4.52,4.52,0,0,1,2.23-.58A4.47,4.47,0,0,1,223.55,352.25Z"/><path class="cls-3" d="M237.92,351.16v11.09H235.1v-1.41a3.67,3.67,0,0,1-1.41,1.13,4.31,4.31,0,0,1-1.89.41,4.63,4.63,0,0,1-2.3-.55,3.78,3.78,0,0,1-1.57-1.62,5.34,5.34,0,0,1-.58-2.55v-6.5h2.81v6.1a2.87,2.87,0,0,0,.66,2,2.3,2.3,0,0,0,1.8.71,2.34,2.34,0,0,0,1.82-.71,2.87,2.87,0,0,0,.66-2v-6.1Z"/><path class="cls-3" d="M242.48,361.93a4.25,4.25,0,0,1-1.71-1.33,3.37,3.37,0,0,1-.69-1.85h2.82a1.51,1.51,0,0,0,.63,1.05,2.17,2.17,0,0,0,1.37.42,2.09,2.09,0,0,0,1.25-.32,1,1,0,0,0,.45-.82.88.88,0,0,0-.55-.81,11.12,11.12,0,0,0-1.75-.59,13.57,13.57,0,0,1-2-.62,3.47,3.47,0,0,1-1.36-1,2.62,2.62,0,0,1-.57-1.78,2.84,2.84,0,0,1,.53-1.68,3.64,3.64,0,0,1,1.52-1.2,5.73,5.73,0,0,1,2.33-.44,4.76,4.76,0,0,1,3.16,1,3.69,3.69,0,0,1,1.3,2.67H246.5a1.49,1.49,0,0,0-.55-1.05,2.06,2.06,0,0,0-1.31-.38,2.11,2.11,0,0,0-1.17.27.89.89,0,0,0-.41.78.9.9,0,0,0,.56.85,8.65,8.65,0,0,0,1.74.6,14,14,0,0,1,2,.61,3.64,3.64,0,0,1,1.35,1,2.77,2.77,0,0,1,.59,1.77,2.94,2.94,0,0,1-.53,1.72,3.55,3.55,0,0,1-1.52,1.2,5.88,5.88,0,0,1-2.31.42A5.78,5.78,0,0,1,242.48,361.93Z"/><path class="cls-3" d="M251.77,349.37a1.63,1.63,0,0,1,0-2.33,1.67,1.67,0,0,1,1.23-.48,1.7,1.7,0,0,1,1.23.48,1.63,1.63,0,0,1,0,2.33,1.69,1.69,0,0,1-1.23.47A1.66,1.66,0,0,1,251.77,349.37Zm2.61,1.79v11.09h-2.8V351.16Z"/><path class="cls-3" d="M257.12,353.69a5,5,0,0,1,1.94-2,5.62,5.62,0,0,1,2.84-.71,5.51,5.51,0,0,1,3.41,1,5,5,0,0,1,1.81,2.89h-3a2.24,2.24,0,0,0-.81-1.13,2.37,2.37,0,0,0-1.41-.41,2.3,2.3,0,0,0-1.9.87,3.85,3.85,0,0,0-.7,2.48,3.77,3.77,0,0,0,.7,2.44,2.3,2.3,0,0,0,1.9.87,2.12,2.12,0,0,0,2.22-1.52h3a5.11,5.11,0,0,1-1.82,2.86,5.35,5.35,0,0,1-3.4,1.06,5.52,5.52,0,0,1-2.84-.71,4.92,4.92,0,0,1-1.94-2,6.82,6.82,0,0,1,0-6Z"/><path class="cls-3" d="M278.22,351.5a4.44,4.44,0,0,1,2.17-.52,4.82,4.82,0,0,1,4.39,2.69,7.05,7.05,0,0,1,0,6,5,5,0,0,1-1.82,2,4.8,4.8,0,0,1-2.57.71,4.4,4.4,0,0,1-2.15-.5,4.57,4.57,0,0,1-1.51-1.26v6.86h-2.8V351.16h2.8v1.6A4.22,4.22,0,0,1,278.22,351.5Zm4,3.43a2.84,2.84,0,0,0-2.53-1.49,2.82,2.82,0,0,0-1.43.39,3,3,0,0,0-1.08,1.13,3.62,3.62,0,0,0-.41,1.75,3.54,3.54,0,0,0,.41,1.73,2.94,2.94,0,0,0,1.08,1.13,2.82,2.82,0,0,0,1.43.39,2.73,2.73,0,0,0,1.45-.4,2.83,2.83,0,0,0,1.08-1.14,3.5,3.5,0,0,0,.41-1.76A3.43,3.43,0,0,0,282.18,354.93Z"/><path class="cls-3" d="M290.29,347.44v14.81h-2.8V347.44Z"/><path class="cls-3" d="M293,353.68a5,5,0,0,1,1.82-2,4.94,4.94,0,0,1,2.58-.7,4.53,4.53,0,0,1,2.16.5,4.43,4.43,0,0,1,1.49,1.27v-1.59h2.83v11.09h-2.83v-1.63a4.11,4.11,0,0,1-1.49,1.29,4.53,4.53,0,0,1-2.18.51,4.81,4.81,0,0,1-2.56-.71,5.16,5.16,0,0,1-1.82-2,6.57,6.57,0,0,1-.67-3A6.51,6.51,0,0,1,293,353.68Zm7.65,1.28a2.74,2.74,0,0,0-1.08-1.13,2.92,2.92,0,0,0-2.9,0,3,3,0,0,0-1.07,1.11,3.54,3.54,0,0,0-.41,1.73,3.62,3.62,0,0,0,.41,1.75,3,3,0,0,0,1.08,1.15,2.74,2.74,0,0,0,1.43.4,2.88,2.88,0,0,0,1.46-.39,2.75,2.75,0,0,0,1.08-1.11,3.59,3.59,0,0,0,.4-1.75A3.51,3.51,0,0,0,300.65,355Z"/><path class="cls-3" d="M309.87,353.46v5.36a1,1,0,0,0,.27.81,1.32,1.32,0,0,0,.91.25h1.3v2.37h-1.76q-3.54,0-3.54-3.45v-5.34h-1.32v-2.3h1.32v-2.74h2.82v2.74h2.48v2.3Z"/><path class="cls-3" d="M319.45,353.46h-1.94v8.79h-2.84v-8.79h-1.26v-2.3h1.26v-.56a3.71,3.71,0,0,1,1.16-3,5.14,5.14,0,0,1,3.5-.89v2.35a2.1,2.1,0,0,0-1.42.34,1.75,1.75,0,0,0-.4,1.31v.45h1.94Z"/><path class="cls-3" d="M323.31,361.71a5.15,5.15,0,0,1-2-2,6.11,6.11,0,0,1-.73-3,5.86,5.86,0,0,1,.75-3,5.3,5.3,0,0,1,2.05-2,6.28,6.28,0,0,1,5.8,0,5.24,5.24,0,0,1,2.05,2,5.86,5.86,0,0,1,.75,3,5.73,5.73,0,0,1-.77,3,5.26,5.26,0,0,1-2.08,2,6,6,0,0,1-2.93.71A5.8,5.8,0,0,1,323.31,361.71Zm4.31-2.1a2.56,2.56,0,0,0,1.07-1.11,3.67,3.67,0,0,0,.4-1.79,3.33,3.33,0,0,0-.83-2.44,2.75,2.75,0,0,0-2-.85,2.69,2.69,0,0,0-2,.85,4.09,4.09,0,0,0,0,4.86,2.59,2.59,0,0,0,2,.85A2.85,2.85,0,0,0,327.62,359.61Z"/><path class="cls-3" d="M338.24,351.5a4,4,0,0,1,2-.5v2.94h-.74a2.86,2.86,0,0,0-2,.62,2.91,2.91,0,0,0-.67,2.16v5.53H334V351.16h2.8v1.72A4,4,0,0,1,338.24,351.5Z"/><path class="cls-3" d="M359.16,352.25a4.72,4.72,0,0,1,1.25,3.5v6.5h-2.8v-6.13a2.78,2.78,0,0,0-.66-2,2.37,2.37,0,0,0-1.8-.69,2.41,2.41,0,0,0-1.81.69,2.78,2.78,0,0,0-.67,2v6.13h-2.8v-6.13a2.78,2.78,0,0,0-.66-2,2.37,2.37,0,0,0-1.8-.69,2.44,2.44,0,0,0-1.83.69,2.78,2.78,0,0,0-.67,2v6.13h-2.8V351.16h2.8v1.34a3.89,3.89,0,0,1,1.39-1.1,4.45,4.45,0,0,1,1.87-.4,4.88,4.88,0,0,1,2.32.55,3.85,3.85,0,0,1,1.58,1.57,4.08,4.08,0,0,1,1.57-1.54,4.55,4.55,0,0,1,2.23-.58A4.46,4.46,0,0,1,359.16,352.25Z"/><path class="cls-3" d="M364.87,361.93a4.25,4.25,0,0,1-1.71-1.33,3.37,3.37,0,0,1-.69-1.85h2.82a1.58,1.58,0,0,0,.63,1.05,2.21,2.21,0,0,0,1.37.42,2.07,2.07,0,0,0,1.25-.32,1,1,0,0,0,.45-.82.87.87,0,0,0-.55-.81,10.76,10.76,0,0,0-1.75-.59,14.35,14.35,0,0,1-2-.62,3.54,3.54,0,0,1-1.36-1,2.62,2.62,0,0,1-.57-1.78,2.91,2.91,0,0,1,.53-1.68,3.7,3.7,0,0,1,1.52-1.2,5.76,5.76,0,0,1,2.33-.44,4.75,4.75,0,0,1,3.16,1,3.66,3.66,0,0,1,1.3,2.67h-2.68a1.46,1.46,0,0,0-.55-1.05,2,2,0,0,0-1.31-.38,2.16,2.16,0,0,0-1.17.27.93.93,0,0,0,.15,1.63,9.13,9.13,0,0,0,1.74.6,14,14,0,0,1,2,.61,3.64,3.64,0,0,1,1.35,1,2.71,2.71,0,0,1,.59,1.77,2.87,2.87,0,0,1-.53,1.72,3.49,3.49,0,0,1-1.52,1.2,5.88,5.88,0,0,1-2.31.42A5.81,5.81,0,0,1,364.87,361.93Z"/><path class="cls-3" d="M32.39,377.68a4.8,4.8,0,0,1,4.39-2.7,4.41,4.41,0,0,1,3.66,1.77v-1.59h2.82v11.09H40.44v-1.63A4.19,4.19,0,0,1,39,385.91a4.6,4.6,0,0,1-2.19.51,4.8,4.8,0,0,1-2.55-.71,5,5,0,0,1-1.82-2,6.45,6.45,0,0,1-.67-3A6.38,6.38,0,0,1,32.39,377.68ZM40,379a2.89,2.89,0,0,0-4-1.14A2.93,2.93,0,0,0,35,378.93a3.54,3.54,0,0,0-.41,1.73,3.62,3.62,0,0,0,.41,1.75,2.86,2.86,0,0,0,1.08,1.15,2.71,2.71,0,0,0,1.43.4,2.88,2.88,0,0,0,2.54-1.5,3.59,3.59,0,0,0,.4-1.75A3.51,3.51,0,0,0,40,379Z"/><path class="cls-3" d="M55.34,376.25a4.82,4.82,0,0,1,1.22,3.5v6.5h-2.8v-6.13a2.9,2.9,0,0,0-.66-2,2.35,2.35,0,0,0-1.8-.71,2.42,2.42,0,0,0-1.83.71,2.86,2.86,0,0,0-.67,2v6.13H46V375.16h2.8v1.38a3.91,3.91,0,0,1,1.43-1.13,4.48,4.48,0,0,1,1.91-.41A4.28,4.28,0,0,1,55.34,376.25Z"/><path class="cls-3" d="M59.17,377.68a4.83,4.83,0,0,1,4.41-2.7,4.65,4.65,0,0,1,2.06.48,4,4,0,0,1,1.56,1.25v-5.27H70v14.81H67.2V384.6a3.81,3.81,0,0,1-1.46,1.32,4.52,4.52,0,0,1-2.18.5,4.84,4.84,0,0,1-2.56-.71,5,5,0,0,1-1.83-2,6.45,6.45,0,0,1-.67-3A6.38,6.38,0,0,1,59.17,377.68ZM66.82,379a2.89,2.89,0,0,0-4-1.14,2.93,2.93,0,0,0-1.07,1.11,3.54,3.54,0,0,0-.41,1.73,3.62,3.62,0,0,0,.41,1.75,2.86,2.86,0,0,0,1.08,1.15,2.69,2.69,0,0,0,1.43.4,2.88,2.88,0,0,0,2.54-1.5,3.71,3.71,0,0,0,.4-1.75A3.62,3.62,0,0,0,66.82,379Z"/><path class="cls-3" d="M87.76,381.54h-8.1a2.69,2.69,0,0,0,.84,1.88,2.56,2.56,0,0,0,1.82.68,2.28,2.28,0,0,0,2.22-1.34h3a5,5,0,0,1-1.84,2.63,5.36,5.36,0,0,1-3.34,1,5.68,5.68,0,0,1-2.87-.71,5,5,0,0,1-2-2,6.1,6.1,0,0,1-.71-3,6.28,6.28,0,0,1,.7-3,4.9,4.9,0,0,1,2-2,5.93,5.93,0,0,1,2.9-.7,5.86,5.86,0,0,1,2.83.68,4.87,4.87,0,0,1,1.94,1.93,5.86,5.86,0,0,1,.69,2.87A7,7,0,0,1,87.76,381.54Zm-2.82-1.88a2.27,2.27,0,0,0-.78-1.73,2.79,2.79,0,0,0-1.86-.64,2.56,2.56,0,0,0-1.75.62,2.72,2.72,0,0,0-.87,1.75Z"/><path class="cls-3" d="M99.22,376.25a4.82,4.82,0,0,1,1.22,3.5v6.5h-2.8v-6.13a2.9,2.9,0,0,0-.66-2,2.35,2.35,0,0,0-1.8-.71,2.39,2.39,0,0,0-1.83.71,2.86,2.86,0,0,0-.67,2v6.13h-2.8V375.16h2.8v1.38a3.91,3.91,0,0,1,1.43-1.13A4.45,4.45,0,0,1,96,375,4.29,4.29,0,0,1,99.22,376.25Z"/><path class="cls-3" d="M111.58,375.55a3.87,3.87,0,0,1,1.53,1.62,5.71,5.71,0,0,1,.55,2.58v6.5h-2.8v-6.13a2.9,2.9,0,0,0-.66-2,2.35,2.35,0,0,0-1.8-.71,2.39,2.39,0,0,0-1.83.71,2.86,2.86,0,0,0-.67,2v6.13h-2.8V371.44h2.8v5.1a3.71,3.71,0,0,1,1.44-1.13,4.8,4.8,0,0,1,2-.41A4.59,4.59,0,0,1,111.58,375.55Z"/><path class="cls-3" d="M116.27,377.68a4.8,4.8,0,0,1,4.39-2.7,4.41,4.41,0,0,1,3.66,1.77v-1.59h2.82v11.09h-2.82v-1.63a4.19,4.19,0,0,1-1.49,1.29,4.6,4.6,0,0,1-2.19.51,4.75,4.75,0,0,1-2.55-.71,5,5,0,0,1-1.82-2,6.45,6.45,0,0,1-.67-3A6.38,6.38,0,0,1,116.27,377.68Zm7.65,1.28a2.87,2.87,0,0,0-1.08-1.13,2.9,2.9,0,0,0-1.46-.39,2.87,2.87,0,0,0-1.44.38,2.93,2.93,0,0,0-1.07,1.11,3.43,3.43,0,0,0-.41,1.73,3.51,3.51,0,0,0,.41,1.75,2.86,2.86,0,0,0,1.08,1.15,2.69,2.69,0,0,0,1.43.4,2.88,2.88,0,0,0,2.54-1.5,3.71,3.71,0,0,0,.4-1.75A3.62,3.62,0,0,0,123.92,379Z"/><path class="cls-3" d="M139.22,376.25a4.82,4.82,0,0,1,1.22,3.5v6.5h-2.8v-6.13a2.9,2.9,0,0,0-.66-2,2.35,2.35,0,0,0-1.8-.71,2.39,2.39,0,0,0-1.83.71,2.86,2.86,0,0,0-.67,2v6.13h-2.8V375.16h2.8v1.38a3.91,3.91,0,0,1,1.43-1.13A4.45,4.45,0,0,1,136,375,4.29,4.29,0,0,1,139.22,376.25Z"/><path class="cls-3" d="M143.08,377.69a5,5,0,0,1,1.94-2,5.62,5.62,0,0,1,2.84-.71,5.51,5.51,0,0,1,3.41,1,5,5,0,0,1,1.81,2.89h-3a2.24,2.24,0,0,0-.81-1.13,2.37,2.37,0,0,0-1.41-.41,2.3,2.3,0,0,0-1.9.87,3.85,3.85,0,0,0-.7,2.48,3.77,3.77,0,0,0,.7,2.44,2.3,2.3,0,0,0,1.9.87,2.12,2.12,0,0,0,2.22-1.52h3a5.11,5.11,0,0,1-1.82,2.86,5.35,5.35,0,0,1-3.4,1.06,5.52,5.52,0,0,1-2.84-.71,4.92,4.92,0,0,1-1.94-2,6.82,6.82,0,0,1,0-6Z"/><path class="cls-3" d="M165.36,381.54h-8.1a2.69,2.69,0,0,0,.84,1.88,2.56,2.56,0,0,0,1.82.68,2.28,2.28,0,0,0,2.22-1.34h3a5,5,0,0,1-1.84,2.63,5.36,5.36,0,0,1-3.34,1,5.68,5.68,0,0,1-2.87-.71,5,5,0,0,1-2-2,6.1,6.1,0,0,1-.71-3,6.28,6.28,0,0,1,.7-3,4.9,4.9,0,0,1,2-2,6.29,6.29,0,0,1,5.73,0,4.87,4.87,0,0,1,1.94,1.93,5.86,5.86,0,0,1,.69,2.87A7,7,0,0,1,165.36,381.54Zm-2.82-1.88a2.27,2.27,0,0,0-.78-1.73,2.79,2.79,0,0,0-1.86-.64,2.56,2.56,0,0,0-1.75.62,2.72,2.72,0,0,0-.87,1.75Z"/><path class="cls-3" d="M182.84,375.16,176,391.48h-3l2.4-5.52L171,375.16h3.14L177,382.9l2.9-7.74Z"/><path class="cls-3" d="M186.38,385.71a5,5,0,0,1-2-2,6,6,0,0,1-.73-3,5.86,5.86,0,0,1,.75-3,5.24,5.24,0,0,1,2.05-2,6.28,6.28,0,0,1,5.8,0,5.3,5.3,0,0,1,2,2,6.3,6.3,0,0,1,0,6,5.4,5.4,0,0,1-2.08,2,6,6,0,0,1-2.93.71A5.75,5.75,0,0,1,186.38,385.71Zm4.31-2.1a2.67,2.67,0,0,0,1.07-1.11,3.79,3.79,0,0,0,.4-1.79,3.37,3.37,0,0,0-.83-2.44,2.76,2.76,0,0,0-2-.85,2.69,2.69,0,0,0-2,.85,4.09,4.09,0,0,0,0,4.86,2.58,2.58,0,0,0,2,.85A2.9,2.9,0,0,0,190.69,383.61Z"/><path class="cls-3" d="M207.56,375.16v11.09h-2.82v-1.41a3.67,3.67,0,0,1-1.41,1.13,4.28,4.28,0,0,1-1.89.41,4.63,4.63,0,0,1-2.3-.55,3.78,3.78,0,0,1-1.57-1.62,5.33,5.33,0,0,1-.57-2.55v-6.5h2.8v6.1a2.87,2.87,0,0,0,.66,2,2.31,2.31,0,0,0,1.8.71,2.34,2.34,0,0,0,1.82-.71,2.87,2.87,0,0,0,.66-2v-6.1Z"/><path class="cls-3" d="M214.53,375.5a4,4,0,0,1,2-.5v2.94h-.74a2.34,2.34,0,0,0-2.66,2.78v5.53h-2.8V375.16h2.8v1.72A4,4,0,0,1,214.53,375.5Z"/><path class="cls-3" d="M227.45,375.5a4.38,4.38,0,0,1,2.17-.52,4.93,4.93,0,0,1,2.57.7,5,5,0,0,1,1.82,2,7.05,7.05,0,0,1,0,6,5.16,5.16,0,0,1-1.82,2,4.85,4.85,0,0,1-2.57.71,4.38,4.38,0,0,1-2.15-.5,4.47,4.47,0,0,1-1.51-1.26v6.86h-2.8V375.16H226v1.6A4.14,4.14,0,0,1,227.45,375.5Zm4,3.43a3,3,0,0,0-1.08-1.11,2.93,2.93,0,0,0-1.45-.38,2.77,2.77,0,0,0-1.43.39,2.87,2.87,0,0,0-1.08,1.13,3.51,3.51,0,0,0-.41,1.75,3.43,3.43,0,0,0,.41,1.73,2.81,2.81,0,0,0,1.08,1.13,2.82,2.82,0,0,0,2.88,0,3,3,0,0,0,1.08-1.14,3.6,3.6,0,0,0,.41-1.76A3.54,3.54,0,0,0,231.41,378.93Z"/><path class="cls-3" d="M240.93,375.5a4,4,0,0,1,2-.5v2.94h-.74a2.34,2.34,0,0,0-2.66,2.78v5.53h-2.8V375.16h2.8v1.72A4,4,0,0,1,240.93,375.5Z"/><path class="cls-3" d="M255,381.54h-8.1a2.69,2.69,0,0,0,.84,1.88,2.56,2.56,0,0,0,1.82.68,2.28,2.28,0,0,0,2.22-1.34h3a5,5,0,0,1-1.84,2.63,5.36,5.36,0,0,1-3.34,1,5.68,5.68,0,0,1-2.87-.71,5,5,0,0,1-2-2,6.1,6.1,0,0,1-.71-3,6.28,6.28,0,0,1,.7-3,4.9,4.9,0,0,1,2-2,6.29,6.29,0,0,1,5.73,0,4.87,4.87,0,0,1,1.94,1.93,5.86,5.86,0,0,1,.69,2.87A7,7,0,0,1,255,381.54Zm-2.82-1.88a2.27,2.27,0,0,0-.78-1.73,2.79,2.79,0,0,0-1.86-.64,2.56,2.56,0,0,0-1.75.62,2.72,2.72,0,0,0-.87,1.75Z"/><path class="cls-3" d="M258.94,385.93a4.25,4.25,0,0,1-1.71-1.33,3.37,3.37,0,0,1-.69-1.85h2.82a1.51,1.51,0,0,0,.63,1.05,2.17,2.17,0,0,0,1.37.42,2.09,2.09,0,0,0,1.25-.32,1,1,0,0,0,.45-.82.88.88,0,0,0-.55-.81,11.12,11.12,0,0,0-1.75-.59,13.57,13.57,0,0,1-2-.62,3.47,3.47,0,0,1-1.36-1,2.62,2.62,0,0,1-.57-1.78,2.84,2.84,0,0,1,.53-1.68,3.64,3.64,0,0,1,1.52-1.2,5.73,5.73,0,0,1,2.33-.44,4.76,4.76,0,0,1,3.16,1,3.69,3.69,0,0,1,1.3,2.67H263a1.49,1.49,0,0,0-.55-1.05,2.06,2.06,0,0,0-1.31-.38,2.11,2.11,0,0,0-1.17.27.89.89,0,0,0-.41.78.9.9,0,0,0,.56.85,8.65,8.65,0,0,0,1.74.6,14,14,0,0,1,2,.61,3.64,3.64,0,0,1,1.35,1,2.77,2.77,0,0,1,.59,1.77,2.94,2.94,0,0,1-.53,1.72,3.55,3.55,0,0,1-1.52,1.2,5.88,5.88,0,0,1-2.31.42A5.78,5.78,0,0,1,258.94,385.93Z"/><path class="cls-3" d="M278.26,381.54h-8.1a2.69,2.69,0,0,0,.84,1.88,2.56,2.56,0,0,0,1.82.68,2.28,2.28,0,0,0,2.22-1.34h3a5,5,0,0,1-1.84,2.63,5.36,5.36,0,0,1-3.34,1,5.68,5.68,0,0,1-2.87-.71,5,5,0,0,1-2-2,6.1,6.1,0,0,1-.71-3,6.28,6.28,0,0,1,.7-3,4.9,4.9,0,0,1,2-2,6.29,6.29,0,0,1,5.73,0,4.87,4.87,0,0,1,1.94,1.93,5.86,5.86,0,0,1,.69,2.87A7,7,0,0,1,278.26,381.54Zm-2.82-1.88a2.27,2.27,0,0,0-.78-1.73,2.79,2.79,0,0,0-1.86-.64,2.56,2.56,0,0,0-1.75.62,2.72,2.72,0,0,0-.87,1.75Z"/><path class="cls-3" d="M289.72,376.25a4.82,4.82,0,0,1,1.22,3.5v6.5h-2.8v-6.13a2.9,2.9,0,0,0-.66-2,2.35,2.35,0,0,0-1.8-.71,2.39,2.39,0,0,0-1.83.71,2.86,2.86,0,0,0-.67,2v6.13h-2.8V375.16h2.8v1.38a3.87,3.87,0,0,1,1.42-1.13,4.53,4.53,0,0,1,1.92-.41A4.31,4.31,0,0,1,289.72,376.25Z"/><path class="cls-3" d="M293.58,377.69a5,5,0,0,1,1.94-2,5.62,5.62,0,0,1,2.84-.71,5.51,5.51,0,0,1,3.41,1,5,5,0,0,1,1.81,2.89h-3a2.24,2.24,0,0,0-.81-1.13,2.37,2.37,0,0,0-1.41-.41,2.3,2.3,0,0,0-1.9.87,3.85,3.85,0,0,0-.7,2.48,3.77,3.77,0,0,0,.7,2.44,2.3,2.3,0,0,0,1.9.87,2.12,2.12,0,0,0,2.22-1.52h3a5.11,5.11,0,0,1-1.82,2.86,5.35,5.35,0,0,1-3.4,1.06,5.52,5.52,0,0,1-2.84-.71,4.92,4.92,0,0,1-1.94-2,6.82,6.82,0,0,1,0-6Z"/><path class="cls-3" d="M315.85,381.54h-8.1a2.78,2.78,0,0,0,.84,1.88,2.58,2.58,0,0,0,1.83.68,2.26,2.26,0,0,0,2.21-1.34h3a5,5,0,0,1-1.84,2.63,5.33,5.33,0,0,1-3.33,1,5.75,5.75,0,0,1-2.88-.71,5,5,0,0,1-2-2,6.1,6.1,0,0,1-.71-3,6.39,6.39,0,0,1,.69-3,5,5,0,0,1,2-2,6,6,0,0,1,2.91-.7,5.82,5.82,0,0,1,2.82.68,4.89,4.89,0,0,1,1.95,1.93,6.37,6.37,0,0,1,.6,4ZM313,379.66a2.21,2.21,0,0,0-.78-1.73,2.74,2.74,0,0,0-1.85-.64,2.56,2.56,0,0,0-1.75.62,2.78,2.78,0,0,0-.88,1.75Z"/><path class="cls-3" d="M318,385.91a1.56,1.56,0,0,1-.49-1.16,1.61,1.61,0,0,1,.49-1.18,1.76,1.76,0,0,1,1.25-.47,1.67,1.67,0,0,1,1.22.47,1.6,1.6,0,0,1,.48,1.18,1.55,1.55,0,0,1-.48,1.16,1.64,1.64,0,0,1-1.22.47A1.72,1.72,0,0,1,318,385.91Z"/><path class="cls-4" d="M341.12,31.55h.64a1,1,0,0,0,.21.09,5.27,5.27,0,0,1,2.25.81Q356.81,39.71,369.4,47c2.13,1.24,4.27,2.45,6.4,3.7a4.89,4.89,0,0,1,2.3,5.56,5.28,5.28,0,0,1-2.77,3.28c-5.26,3-10.51,6.07-15.76,9.1l-15.49,9a5,5,0,0,1-7.59-4.27c0-4.38,0-8.76,0-13.15q0-11.68,0-23.38a5,5,0,0,1,3.92-5Z"/></g></g></svg>