<svg xmlns="http://www.w3.org/2000/svg" xmlns:xlink="http://www.w3.org/1999/xlink" viewBox="0 0 400 541"><defs><style>.cls-1{fill:#2d2d2d;}.cls-2{fill:#04e373;}.cls-3{font-size:20px;fill:#f2f2f2;font-family:Poppins-SemiBold, Poppins;font-weight:600;}.cls-4{fill:url(#linear-gradient);}</style><linearGradient id="linear-gradient" x1="318.01" y1="79.38" x2="400.6" y2="8.79" gradientUnits="userSpaceOnUse"><stop offset="0" stop-color="#04e373"/><stop offset="1" stop-color="#003f1e"/></linearGradient></defs><g id="Layer_2" data-name="Layer 2"><g id="Create_Video_Distribution" data-name="Create Video Distribution"><rect class="cls-1" width="400" height="541" rx="37.38"/><path class="cls-2" d="M32.13,127.52a16.62,16.62,0,0,1,6.35-6.35,18,18,0,0,1,9-2.28,17.75,17.75,0,0,1,10.25,3,15.73,15.73,0,0,1,6.15,8.3h-8a8.42,8.42,0,0,0-3.38-3.75,9.92,9.92,0,0,0-5-1.25A10.36,10.36,0,0,0,42,126.62a9.8,9.8,0,0,0-3.7,4,14.71,14.71,0,0,0,0,12.18,9.76,9.76,0,0,0,3.7,4.05,10.35,10.35,0,0,0,5.43,1.42,9.73,9.73,0,0,0,5-1.27,8.5,8.5,0,0,0,3.38-3.78h8a15.6,15.6,0,0,1-6.13,8.33,17.83,17.83,0,0,1-10.27,3,18,18,0,0,1-9-2.27,16.71,16.71,0,0,1-6.35-6.33,19.44,19.44,0,0,1,0-18.42Z"/><path class="cls-2" d="M80.43,127.39a9.85,9.85,0,0,1,5-1.25v7.35H83.56a7.13,7.13,0,0,0-5,1.55q-1.67,1.56-1.67,5.4v13.8h-7v-27.7h7v4.3A9.94,9.94,0,0,1,80.43,127.39Z"/><path class="cls-2" d="M115.66,142.49H95.41a6.82,6.82,0,0,0,2.1,4.7,6.44,6.44,0,0,0,4.55,1.7,5.71,5.71,0,0,0,5.55-3.35h7.55a12.67,12.67,0,0,1-4.6,6.58,13.41,13.41,0,0,1-8.35,2.57A14.5,14.5,0,0,1,95,152.92a12.55,12.55,0,0,1-5-5,15.4,15.4,0,0,1-1.77-7.5,15.67,15.67,0,0,1,1.75-7.55,12.23,12.23,0,0,1,4.9-5,14.73,14.73,0,0,1,7.25-1.75,14.58,14.58,0,0,1,7.07,1.7,12,12,0,0,1,4.85,4.83,14.57,14.57,0,0,1,1.73,7.17A16.9,16.9,0,0,1,115.66,142.49Zm-7-4.7a5.58,5.58,0,0,0-2-4.32,6.94,6.94,0,0,0-4.65-1.63,6.37,6.37,0,0,0-4.38,1.58,6.91,6.91,0,0,0-2.17,4.37Z"/><path class="cls-2" d="M120.83,132.84a12.41,12.41,0,0,1,4.55-5,12.19,12.19,0,0,1,6.43-1.75,11.11,11.11,0,0,1,9.15,4.4v-4h7v27.7h-7v-4.05a10.47,10.47,0,0,1-3.73,3.23,11.38,11.38,0,0,1-5.47,1.27,11.78,11.78,0,0,1-6.38-1.8,12.68,12.68,0,0,1-4.55-5.07,16.37,16.37,0,0,1-1.67-7.53A16.12,16.12,0,0,1,120.83,132.84ZM140,136a7.07,7.07,0,0,0-2.7-2.8,7.24,7.24,0,0,0-3.65-1,7.12,7.12,0,0,0-3.6.95,7.25,7.25,0,0,0-2.68,2.78,8.73,8.73,0,0,0-1,4.32,9,9,0,0,0,1,4.38,7.42,7.42,0,0,0,2.7,2.87,6.85,6.85,0,0,0,3.58,1,7.23,7.23,0,0,0,3.65-1,7.07,7.07,0,0,0,2.7-2.8,10.07,10.07,0,0,0,0-8.75Z"/><path class="cls-2" d="M163,132.29v13.4a2.65,2.65,0,0,0,.67,2,3.31,3.31,0,0,0,2.28.62h3.25v5.9h-4.4q-8.85,0-8.85-8.6V132.29h-3.3v-5.75H156v-6.85h7v6.85h6.2v5.75Z"/><path class="cls-2" d="M199.81,142.49H179.56a6.82,6.82,0,0,0,2.1,4.7,6.44,6.44,0,0,0,4.55,1.7,5.71,5.71,0,0,0,5.55-3.35h7.55a12.67,12.67,0,0,1-4.6,6.58,13.41,13.41,0,0,1-8.35,2.57,14.5,14.5,0,0,1-7.18-1.77,12.42,12.42,0,0,1-5-5,15.4,15.4,0,0,1-1.77-7.5,15.67,15.67,0,0,1,1.75-7.55,12.23,12.23,0,0,1,4.9-5,14.73,14.73,0,0,1,7.25-1.75,14.58,14.58,0,0,1,7.07,1.7,12.06,12.06,0,0,1,4.85,4.83,14.57,14.57,0,0,1,1.73,7.17A16.9,16.9,0,0,1,199.81,142.49Zm-7.05-4.7a5.58,5.58,0,0,0-1.95-4.32,6.94,6.94,0,0,0-4.65-1.63,6.35,6.35,0,0,0-4.38,1.58,6.91,6.91,0,0,0-2.17,4.37Z"/><path class="cls-2" d="M67.82,213.6H45.58L41.9,224.24H30.14l20.08-55.92h13l20.08,55.92H71.5Zm-3-9L56.7,181.28l-8.08,23.36Z"/><path class="cls-2" d="M132.7,179.92v44.32H121.42v-5.6a14.76,14.76,0,0,1-5.64,4.52,17.41,17.41,0,0,1-7.56,1.64,18.71,18.71,0,0,1-9.2-2.2,15.41,15.41,0,0,1-6.28-6.48,21.39,21.39,0,0,1-2.28-10.2v-26h11.2v24.4q0,5.28,2.64,8.12a9.33,9.33,0,0,0,7.2,2.84,9.43,9.43,0,0,0,7.28-2.84q2.64-2.83,2.64-8.12v-24.4Z"/><path class="cls-2" d="M143.54,190a19.32,19.32,0,0,1,17.64-10.8,18.89,18.89,0,0,1,8.24,1.88,16.59,16.59,0,0,1,6.24,5V165H187v59.2H175.66v-6.56a15.2,15.2,0,0,1-5.84,5.28,18.24,18.24,0,0,1-8.72,2,19,19,0,0,1-10.24-2.88,19.92,19.92,0,0,1-7.32-8.12,26,26,0,0,1-2.68-12A25.62,25.62,0,0,1,143.54,190Zm30.6,5.08a11.37,11.37,0,0,0-4.32-4.48A11.56,11.56,0,0,0,164,189a11.38,11.38,0,0,0-5.76,1.52,11.51,11.51,0,0,0-4.28,4.44,13.86,13.86,0,0,0-1.64,6.92,14.28,14.28,0,0,0,1.64,7,11.71,11.71,0,0,0,4.32,4.6,10.92,10.92,0,0,0,5.72,1.6,11.56,11.56,0,0,0,5.84-1.56,11.3,11.3,0,0,0,4.32-4.48,16.11,16.11,0,0,0,0-14Z"/><path class="cls-2" d="M198.74,172.76a6.57,6.57,0,0,1,0-9.36,7.38,7.38,0,0,1,9.84,0,6.57,6.57,0,0,1,0,9.36,7.38,7.38,0,0,1-9.84,0Zm10.44,7.16v44.32H198V179.92Z"/><path class="cls-2" d="M228.38,222.12a20.32,20.32,0,0,1-8-8,24,24,0,0,1-2.92-12,23.6,23.6,0,0,1,3-12,20.91,20.91,0,0,1,8.2-8,25.11,25.11,0,0,1,23.2,0,21,21,0,0,1,8.2,8,23.6,23.6,0,0,1,3,12,23.1,23.1,0,0,1-3.08,12,21.35,21.35,0,0,1-8.32,8A24.14,24.14,0,0,1,239.9,225,23.26,23.26,0,0,1,228.38,222.12Zm17.24-8.4a10.74,10.74,0,0,0,4.28-4.44,15,15,0,0,0,1.6-7.2q0-6.32-3.32-9.72a11,11,0,0,0-8.12-3.4,10.68,10.68,0,0,0-8,3.4q-3.24,3.4-3.24,9.72t3.16,9.72a10.38,10.38,0,0,0,8,3.4A11.64,11.64,0,0,0,245.62,213.72Z"/><path class="cls-2" d="M49.51,276.24l-7.7-13.6h-3.3v13.6h-7v-34.9h13.1a15.3,15.3,0,0,1,6.9,1.43,9.92,9.92,0,0,1,4.27,3.85,10.83,10.83,0,0,1-.57,11.65,10.27,10.27,0,0,1-6,3.82l8.35,14.15Zm-11-18.85h5.85A5.84,5.84,0,0,0,48.61,256a5.14,5.14,0,0,0,1.4-3.83,4.88,4.88,0,0,0-1.4-3.72,6,6,0,0,0-4.25-1.33H38.51Z"/><path class="cls-2" d="M89.11,264.49H68.86a6.82,6.82,0,0,0,2.1,4.7,6.44,6.44,0,0,0,4.55,1.7,5.71,5.71,0,0,0,5.55-3.35h7.55a12.67,12.67,0,0,1-4.6,6.58,13.41,13.41,0,0,1-8.35,2.57,14.5,14.5,0,0,1-7.18-1.77,12.55,12.55,0,0,1-5-5,15.4,15.4,0,0,1-1.77-7.5,15.67,15.67,0,0,1,1.75-7.55,12.23,12.23,0,0,1,4.9-5,14.73,14.73,0,0,1,7.25-1.75,14.58,14.58,0,0,1,7.07,1.7,12,12,0,0,1,4.85,4.83,14.57,14.57,0,0,1,1.73,7.17A16.9,16.9,0,0,1,89.11,264.49Zm-7-4.7a5.55,5.55,0,0,0-2-4.32,6.94,6.94,0,0,0-4.65-1.63,6.37,6.37,0,0,0-4.38,1.58,6.91,6.91,0,0,0-2.17,4.37Z"/><path class="cls-2" d="M101.41,239.24v37h-7v-37Z"/><path class="cls-2" d="M133.86,264.49H113.61a6.82,6.82,0,0,0,2.1,4.7,6.44,6.44,0,0,0,4.55,1.7,5.71,5.71,0,0,0,5.55-3.35h7.55a12.67,12.67,0,0,1-4.6,6.58,13.41,13.41,0,0,1-8.35,2.57,14.5,14.5,0,0,1-7.18-1.77,12.55,12.55,0,0,1-5-5,15.4,15.4,0,0,1-1.77-7.5,15.67,15.67,0,0,1,1.75-7.55,12.23,12.23,0,0,1,4.9-5,14.73,14.73,0,0,1,7.25-1.75,14.58,14.58,0,0,1,7.07,1.7,12,12,0,0,1,4.85,4.83,14.57,14.57,0,0,1,1.73,7.17A16.9,16.9,0,0,1,133.86,264.49Zm-7.05-4.7a5.58,5.58,0,0,0-2-4.32,6.94,6.94,0,0,0-4.65-1.63,6.37,6.37,0,0,0-4.38,1.58,6.91,6.91,0,0,0-2.17,4.37Z"/><path class="cls-2" d="M139,254.84a12.41,12.41,0,0,1,4.55-5,12.19,12.19,0,0,1,6.43-1.75,11.11,11.11,0,0,1,9.15,4.4v-4h7.05v27.7h-7.05v-4.05a10.47,10.47,0,0,1-3.73,3.23,11.38,11.38,0,0,1-5.47,1.27,11.78,11.78,0,0,1-6.38-1.8,12.68,12.68,0,0,1-4.55-5.07,16.37,16.37,0,0,1-1.67-7.53A16.12,16.12,0,0,1,139,254.84ZM158.16,258a7.07,7.07,0,0,0-2.7-2.8,7.24,7.24,0,0,0-3.65-1,7,7,0,0,0-6.28,3.73,8.73,8.73,0,0,0-1,4.32,9,9,0,0,0,1,4.38,7.27,7.27,0,0,0,2.7,2.87,6.85,6.85,0,0,0,3.58,1,7.23,7.23,0,0,0,3.65-1,7.07,7.07,0,0,0,2.7-2.8,10.07,10.07,0,0,0,0-8.75Z"/><path class="cls-2" d="M177.56,275.47a10.84,10.84,0,0,1-4.28-3.33,8.42,8.42,0,0,1-1.72-4.65h7.05a3.8,3.8,0,0,0,1.57,2.65,5.49,5.49,0,0,0,3.43,1.05,5.26,5.26,0,0,0,3.12-.8,2.41,2.41,0,0,0,1.13-2.05,2.16,2.16,0,0,0-1.38-2,26.42,26.42,0,0,0-4.37-1.48,36.25,36.25,0,0,1-5.08-1.55,8.75,8.75,0,0,1-3.4-2.45,6.57,6.57,0,0,1-1.42-4.45,7.21,7.21,0,0,1,1.32-4.2,9,9,0,0,1,3.8-3,14.3,14.3,0,0,1,5.83-1.1,11.9,11.9,0,0,1,7.9,2.48,9.18,9.18,0,0,1,3.25,6.67h-6.7a3.61,3.61,0,0,0-1.38-2.62,5.12,5.12,0,0,0-3.27-1,5.22,5.22,0,0,0-2.93.7,2.24,2.24,0,0,0-1,2,2.28,2.28,0,0,0,1.4,2.13,21.86,21.86,0,0,0,4.35,1.47,37.42,37.42,0,0,1,5,1.55,8.78,8.78,0,0,1,3.37,2.48,6.83,6.83,0,0,1,1.48,4.42,7.35,7.35,0,0,1-1.33,4.3,8.72,8.72,0,0,1-3.8,3,14.32,14.32,0,0,1-5.77,1.07A14.54,14.54,0,0,1,177.56,275.47Z"/><path class="cls-2" d="M225.86,264.49H205.61a6.82,6.82,0,0,0,2.1,4.7,6.44,6.44,0,0,0,4.55,1.7,5.71,5.71,0,0,0,5.55-3.35h7.55a12.67,12.67,0,0,1-4.6,6.58,13.41,13.41,0,0,1-8.35,2.57,14.5,14.5,0,0,1-7.18-1.77,12.42,12.42,0,0,1-4.95-5,15.4,15.4,0,0,1-1.77-7.5,15.67,15.67,0,0,1,1.75-7.55,12.23,12.23,0,0,1,4.9-5,14.73,14.73,0,0,1,7.25-1.75,14.58,14.58,0,0,1,7.07,1.7,12.06,12.06,0,0,1,4.85,4.83,14.57,14.57,0,0,1,1.73,7.17A16.9,16.9,0,0,1,225.86,264.49Zm-7.05-4.7a5.58,5.58,0,0,0-1.95-4.32,6.94,6.94,0,0,0-4.65-1.63,6.35,6.35,0,0,0-4.38,1.58,6.91,6.91,0,0,0-2.17,4.37Z"/><text class="cls-3" transform="translate(31.06 338.24)">Distribute your music worldwide<tspan x="0" y="24">as Singles, EPs, Albums, or</tspan><tspan x="0" y="48">Compilations across global</tspan><tspan x="0" y="72">music platforms.</tspan></text><path class="cls-4" d="M341.12,31.55h.64a1,1,0,0,0,.21.09,5.27,5.27,0,0,1,2.25.81Q356.81,39.71,369.4,47c2.13,1.24,4.27,2.45,6.4,3.7a4.89,4.89,0,0,1,2.3,5.56,5.28,5.28,0,0,1-2.77,3.28c-5.26,3-10.51,6.07-15.76,9.1l-15.49,9a5,5,0,0,1-7.59-4.27c0-4.38,0-8.76,0-13.15q0-11.68,0-23.38a5,5,0,0,1,3.92-5Z"/></g></g></svg>