<svg xmlns="http://www.w3.org/2000/svg" viewBox="0 0 151.31 38.12"><defs><style>.cls-1{fill:#6d28d9;}.cls-2{fill:#fff;}</style></defs><g id="Layer_2" data-name="Layer 2"><g id="Profile_Pages" data-name="Profile Pages"><rect class="cls-1" width="151.31" height="38.12" rx="7.12"/><path class="cls-2" d="M21.15,28.05,20.76,28a2.81,2.81,0,0,1-2-3.45.18.18,0,0,0-.1-.24L13,21,12.89,21a2.83,2.83,0,1,1,0-3.82l.24-.13q2.74-1.59,5.5-3.17c.14-.08.13-.15.09-.28a2.84,2.84,0,1,1,.78,1.35.75.75,0,0,1-.11-.13l-.2.11-5.53,3.19c-.13.08-.17.14-.13.3a2.7,2.7,0,0,1,0,1.54l5.89,3.39a2.86,2.86,0,0,1,1.15-.76,2.75,2.75,0,0,1,2.91.63,2.68,2.68,0,0,1,.72,2.9A2.72,2.72,0,0,1,21.88,28l-.1,0Z"/><path class="cls-2" d="M34.08,23.89V13.74h3.8a4.62,4.62,0,0,1,3,.92A3.16,3.16,0,0,1,42,17.22a3.26,3.26,0,0,1-.5,1.85,3.12,3.12,0,0,1-1.43,1.19,5.29,5.29,0,0,1-2.21.41H34.67l.48-.49v3.71Zm1.07-3.62-.48-.51h3.18a3.48,3.48,0,0,0,2.31-.67A2.29,2.29,0,0,0,41,17.22a2.31,2.31,0,0,0-.79-1.88,3.48,3.48,0,0,0-2.31-.67H34.67l.48-.51ZM41,23.89,38.4,20.21h1.16l2.62,3.68Z"/><path class="cls-2" d="M47.58,24a4.25,4.25,0,0,1-2.09-.5,3.74,3.74,0,0,1-1.41-1.38,4,4,0,0,1-.5-2,4.08,4.08,0,0,1,.48-2,3.57,3.57,0,0,1,1.33-1.37,4,4,0,0,1,3.82,0,3.53,3.53,0,0,1,1.31,1.37,4.13,4.13,0,0,1,.48,2,.76.76,0,0,1,0,.15c0,.06,0,.11,0,.17H44.36v-.77h6.07l-.4.3a3,3,0,0,0-.36-1.47,2.57,2.57,0,0,0-1-1,2.65,2.65,0,0,0-1.41-.37,2.7,2.7,0,0,0-1.41.37,2.62,2.62,0,0,0-1,1A3.15,3.15,0,0,0,44.58,20v.16A3,3,0,0,0,45,21.65a2.65,2.65,0,0,0,1.07,1,3.26,3.26,0,0,0,1.58.37,3.44,3.44,0,0,0,1.29-.24,2.77,2.77,0,0,0,1-.76l.58.67a3.3,3.3,0,0,1-1.27.93A4.32,4.32,0,0,1,47.58,24Z"/><path class="cls-2" d="M51.91,17.14v-.86h4.72v.86Zm1.37,6.75V15.32a2.11,2.11,0,0,1,2.3-2.26,2.94,2.94,0,0,1,.84.12,1.64,1.64,0,0,1,.68.36l-.35.77a1.3,1.3,0,0,0-.5-.28,1.85,1.85,0,0,0-.63-.1,1.35,1.35,0,0,0-1,.36,1.52,1.52,0,0,0-.34,1.08v1.16l0,.48v6.88Z"/><path class="cls-2" d="M61.12,24a4.28,4.28,0,0,1-2.09-.5,3.64,3.64,0,0,1-1.4-1.38,4,4,0,0,1-.51-2,4.08,4.08,0,0,1,.48-2,3.6,3.6,0,0,1,1.34-1.37,3.69,3.69,0,0,1,1.9-.5,3.74,3.74,0,0,1,1.91.48,3.46,3.46,0,0,1,1.31,1.37,4.13,4.13,0,0,1,.48,2v.15a1,1,0,0,0,0,.17H57.9v-.77H64l-.41.3a3,3,0,0,0-.36-1.47,2.5,2.5,0,0,0-1-1,2.85,2.85,0,0,0-2.81,0,2.48,2.48,0,0,0-1,1A3,3,0,0,0,58.12,20v.16a3,3,0,0,0,.38,1.53,2.68,2.68,0,0,0,1.08,1,3.22,3.22,0,0,0,1.57.37,3.49,3.49,0,0,0,1.3-.24,2.74,2.74,0,0,0,1-.76l.58.67a3.34,3.34,0,0,1-1.26.93A4.37,4.37,0,0,1,61.12,24Z"/><path class="cls-2" d="M66.64,23.89V16.28h1v2.07l-.1-.36a2.47,2.47,0,0,1,1.07-1.32,3.5,3.5,0,0,1,1.87-.46v1h-.23a2.43,2.43,0,0,0-1.88.74A2.92,2.92,0,0,0,67.67,20v3.88Z"/><path class="cls-2" d="M78.3,24a5.77,5.77,0,0,1-1.78-.27A3.88,3.88,0,0,1,75.2,23l.46-.81a4.85,4.85,0,0,0,2.72.86,2.82,2.82,0,0,0,1.56-.34,1.07,1.07,0,0,0,.48-.91.84.84,0,0,0-.27-.66,1.72,1.72,0,0,0-.7-.36c-.29-.08-.62-.15-1-.21s-.72-.13-1.07-.21a3.64,3.64,0,0,1-1-.34,1.91,1.91,0,0,1-.71-.61,1.82,1.82,0,0,1-.27-1.05,1.9,1.9,0,0,1,.35-1.11,2.34,2.34,0,0,1,1-.78,4.25,4.25,0,0,1,1.65-.28A5.78,5.78,0,0,1,80,16.4a4.19,4.19,0,0,1,1.22.52l-.45.83a3.26,3.26,0,0,0-1.09-.5,4.21,4.21,0,0,0-1.16-.16,2.52,2.52,0,0,0-1.51.36,1.06,1.06,0,0,0-.49.9.9.9,0,0,0,.27.69,1.84,1.84,0,0,0,.71.38,7.69,7.69,0,0,0,1,.23,9.93,9.93,0,0,1,1.06.21,4.81,4.81,0,0,1,1,.33,1.86,1.86,0,0,1,.71.59,1.75,1.75,0,0,1,.27,1,1.8,1.8,0,0,1-.37,1.15A2.39,2.39,0,0,1,80,23.7,4.79,4.79,0,0,1,78.3,24Z"/><path class="cls-2" d="M82.14,17.14v-.86h4.72v.86ZM85.74,24a2,2,0,0,1-2.23-2.22V14.6h1v7.09a1.44,1.44,0,0,0,.34,1,1.27,1.27,0,0,0,1,.36A1.67,1.67,0,0,0,87,22.69l.36.74a2,2,0,0,1-.73.41A3.29,3.29,0,0,1,85.74,24Z"/><path class="cls-2" d="M92.37,24a3.77,3.77,0,0,1-1.7-.37,2.54,2.54,0,0,1-1.12-1.08,3.71,3.71,0,0,1-.4-1.82V16.28h1v4.31a2.52,2.52,0,0,0,.6,1.83,2.25,2.25,0,0,0,1.69.62,2.76,2.76,0,0,0,1.38-.33,2.18,2.18,0,0,0,.9-.95,3.25,3.25,0,0,0,.31-1.49v-4h1v7.61h-1V21.81l.16.37a2.91,2.91,0,0,1-1.13,1.32A3.34,3.34,0,0,1,92.37,24Z"/><path class="cls-2" d="M102,24a3.88,3.88,0,0,1-1.95-.5,3.56,3.56,0,0,1-1.35-1.37,4.43,4.43,0,0,1,0-4.05A3.6,3.6,0,0,1,100,16.69a4,4,0,0,1,1.95-.48,3.59,3.59,0,0,1,1.8.45A3.38,3.38,0,0,1,105.05,18a4.41,4.41,0,0,1,.47,2.11,4.4,4.4,0,0,1-.47,2.1,3.28,3.28,0,0,1-1.25,1.33A3.61,3.61,0,0,1,102,24Zm.08-.92a2.82,2.82,0,0,0,1.45-.37,2.62,2.62,0,0,0,1-1,3.49,3.49,0,0,0,0-3.13,2.66,2.66,0,0,0-1-1,3,3,0,0,0-2.89,0,2.7,2.7,0,0,0-1,1,3.41,3.41,0,0,0,0,3.13,2.66,2.66,0,0,0,1,1A2.81,2.81,0,0,0,102.07,23.05Zm2.87.84V21.6l.1-1.53-.15-1.54v-5.4h1V23.89Z"/><path class="cls-2" d="M112,24a4.28,4.28,0,0,1-2.09-.5,3.74,3.74,0,0,1-1.41-1.38,4.35,4.35,0,0,1,0-4,3.6,3.6,0,0,1,1.34-1.37,3.69,3.69,0,0,1,1.9-.5,3.76,3.76,0,0,1,1.91.48A3.46,3.46,0,0,1,115,18.06a4.13,4.13,0,0,1,.48,2,.76.76,0,0,1,0,.15v.17h-6.63v-.77h6.07l-.4.3a3,3,0,0,0-.36-1.47,2.5,2.5,0,0,0-1-1,2.85,2.85,0,0,0-2.81,0,2.48,2.48,0,0,0-1,1A3,3,0,0,0,109,20v.16a3,3,0,0,0,.38,1.53,2.72,2.72,0,0,0,1.07,1,3.26,3.26,0,0,0,1.58.37,3.53,3.53,0,0,0,1.3-.24,2.74,2.74,0,0,0,1-.76l.58.67a3.3,3.3,0,0,1-1.27.93A4.29,4.29,0,0,1,112,24Z"/><path class="cls-2" d="M117.55,23.89V16.28h1v2.09l-.16-.39a2.76,2.76,0,0,1,1.16-1.3,4,4,0,0,1,3.53-.12,2.55,2.55,0,0,1,1.1,1.08,3.75,3.75,0,0,1,.4,1.83v4.42h-1V19.57a2.51,2.51,0,0,0-.6-1.82,2.25,2.25,0,0,0-1.69-.61,3,3,0,0,0-1.41.32,2.3,2.3,0,0,0-.93.95,3.08,3.08,0,0,0-.33,1.48v4Z"/><path class="cls-2" d="M126.17,17.14v-.86h4.71v.86ZM129.76,24a2.27,2.27,0,0,1-1.65-.58,2.22,2.22,0,0,1-.58-1.64V14.6h1v7.09a1.44,1.44,0,0,0,.34,1,1.28,1.28,0,0,0,1,.36,1.67,1.67,0,0,0,1.13-.39l.36.74a2,2,0,0,1-.73.41A3.29,3.29,0,0,1,129.76,24Z"/><path class="cls-2" d="M135.29,24a5.83,5.83,0,0,1-1.79-.27,3.88,3.88,0,0,1-1.32-.68l.47-.81a4.4,4.4,0,0,0,1.19.6,4.54,4.54,0,0,0,1.52.26,2.79,2.79,0,0,0,1.56-.34,1.07,1.07,0,0,0,.48-.91.84.84,0,0,0-.27-.66,1.66,1.66,0,0,0-.7-.36,9.54,9.54,0,0,0-1-.21c-.36-.06-.71-.13-1.07-.21a3.64,3.64,0,0,1-1-.34,1.88,1.88,0,0,1-.7-.61,2,2,0,0,1,.08-2.16,2.28,2.28,0,0,1,1-.78,4.23,4.23,0,0,1,1.64-.28,5.72,5.72,0,0,1,1.48.19,4.07,4.07,0,0,1,1.22.52l-.45.83a3.26,3.26,0,0,0-1.09-.5,4.16,4.16,0,0,0-1.16-.16,2.54,2.54,0,0,0-1.51.36,1.06,1.06,0,0,0-.49.9.9.9,0,0,0,.27.69,1.92,1.92,0,0,0,.71.38,8.13,8.13,0,0,0,1,.23,9.46,9.46,0,0,1,1.06.21,4.42,4.42,0,0,1,1,.33,1.72,1.72,0,0,1,.71.59,1.75,1.75,0,0,1,.27,1,1.8,1.8,0,0,1-.37,1.15,2.29,2.29,0,0,1-1.07.76A4.77,4.77,0,0,1,135.29,24Z"/></g></g></svg>