<svg xmlns="http://www.w3.org/2000/svg" viewBox="0 0 28.88 34.33"><defs><style>.cls-1{fill:#430091;}</style></defs><g id="Layer_2" data-name="Layer 2"><g id="Profile_Pages" data-name="Profile Pages"><path class="cls-1" d="M0,34.33C0,33.21,0,32.09,0,31c0-.93,0-1.86,0-2.79A2.2,2.2,0,0,1,1,26.23a12.85,12.85,0,0,1,3.6-2A31.19,31.19,0,0,0,9.25,22c.6-.35.87-.27,1.19.35.76,1.48,1.49,3,2.28,4.44a8.43,8.43,0,0,0,1.11,1.55c.41.47.79.45,1.23,0a9.54,9.54,0,0,0,1.65-2.55c.6-1.15,1.16-2.32,1.75-3.47.3-.58.59-.67,1.13-.33a47.21,47.21,0,0,0,5.85,2.75,8.75,8.75,0,0,1,2.92,1.93,1.74,1.74,0,0,1,.51,1.26c0,2,0,4,0,6,0,.14,0,.27,0,.41Z"/><path class="cls-1" d="M23.58,6.56c-.61.29-1.15.59-1.73.82a.9.9,0,0,0-.63.94c0,.89-.19,1.77-.31,2.66a.57.57,0,0,0,.15.57,1.45,1.45,0,0,1,.38,1.21,9.56,9.56,0,0,1-.19,1.29,1.3,1.3,0,0,1-.78.94,1.08,1.08,0,0,0-.62.82A6,6,0,0,1,15,20.25a4.79,4.79,0,0,1-3.55-1A6.06,6.06,0,0,1,9,15.67a1,1,0,0,0-.5-.61,1.61,1.61,0,0,1-.91-1.25,6,6,0,0,1-.1-1.39,3.56,3.56,0,0,1,.37-.91A1.23,1.23,0,0,0,8,11c-.1-1-.24-2.06-.34-3.09a.42.42,0,0,0-.28-.4L4.16,6a1.48,1.48,0,0,1-.34-.21.44.44,0,0,1,0-.72,2.43,2.43,0,0,1,.49-.29c3.08-1.51,6.17-3,9.24-4.53a1.85,1.85,0,0,1,1.78,0c3.1,1.53,6.21,3,9.31,4.55.27.14.61.24.61.64s-.33.48-.6.6a.5.5,0,0,0-.34.56c0,.82,0,1.65,0,2.48a.64.64,0,0,0,.15.37.77.77,0,0,1,.05,1,.48.48,0,0,0-.08.35c.09.61.19,1.21.32,1.81.07.32-.05.49-.33.52a4.78,4.78,0,0,1-1,0c-.27,0-.37-.19-.32-.47.13-.63.25-1.25.35-1.88a.54.54,0,0,0-.09-.35.75.75,0,0,1,.05-1,.42.42,0,0,0,.15-.24C23.58,8.33,23.58,7.47,23.58,6.56Z"/></g></g></svg>