<svg xmlns="http://www.w3.org/2000/svg" viewBox="0 0 73.02 23.71"><defs><style>.cls-1{fill:#fff;stroke:#1e1e1e;stroke-miterlimit:10;stroke-width:0.5px;}</style></defs><g id="Layer_2" data-name="Layer 2"><g id="Financial"><rect class="cls-1" x="0.25" y="0.25" width="72.52" height="23.21" rx="4.55"/><path d="M11.61,15.2V6.8h3.28a4.48,4.48,0,0,1,1.88.35,2.64,2.64,0,0,1,1.2,1,2.88,2.88,0,0,1,.42,1.57A2.83,2.83,0,0,1,18,11.29a2.72,2.72,0,0,1-1.2,1,4.64,4.64,0,0,1-1.88.35H12.27l.54-.56V15.2Zm1.2-3-.54-.6h2.58a2.69,2.69,0,0,0,1.74-.49,1.72,1.72,0,0,0,.6-1.4,1.71,1.71,0,0,0-.6-1.39,2.69,2.69,0,0,0-1.74-.49H12.27l.54-.6Z"/><path d="M22.94,15.27a3.74,3.74,0,0,1-1.8-.42,3.09,3.09,0,0,1-1.2-1.15A3.33,3.33,0,0,1,19.52,12a3.27,3.27,0,0,1,.41-1.68,3.07,3.07,0,0,1,1.14-1.15,3.5,3.5,0,0,1,3.27,0,3,3,0,0,1,1.11,1.15,3.52,3.52,0,0,1,.4,1.72v.17c0,.06,0,.12,0,.18H20.42v-.83h4.81l-.47.29a2.17,2.17,0,0,0-.25-1.09,2,2,0,0,0-.73-.75,2.07,2.07,0,0,0-1.07-.27,2.1,2.1,0,0,0-1.07.27,1.85,1.85,0,0,0-.73.76,2.21,2.21,0,0,0-.27,1.1v.2a2.15,2.15,0,0,0,.3,1.13,2.06,2.06,0,0,0,.82.78,2.86,2.86,0,0,0,2.24.08,2.2,2.2,0,0,0,.81-.58l.63.75a2.8,2.8,0,0,1-1.07.77A3.87,3.87,0,0,1,22.94,15.27Z"/><path d="M30.84,8.78a3,3,0,0,1,1.38.3,2.2,2.2,0,0,1,.93.91,3.24,3.24,0,0,1,.33,1.55V15.2H32.33V11.67a1.92,1.92,0,0,0-.45-1.39,1.64,1.64,0,0,0-1.26-.47,2.25,2.25,0,0,0-1.07.24,1.55,1.55,0,0,0-.7.71,2.4,2.4,0,0,0-.25,1.16V15.2H27.45V8.84h1.1v1.71l-.18-.45a2.19,2.19,0,0,1,1-1A3.06,3.06,0,0,1,30.84,8.78Z"/><path d="M38.25,15.27a3.31,3.31,0,0,1-1.65-.41,2.93,2.93,0,0,1-1.15-1.14A3.37,3.37,0,0,1,35,12a3.32,3.32,0,0,1,.42-1.7A3.07,3.07,0,0,1,36.6,9.18a3.3,3.3,0,0,1,1.65-.4,2.94,2.94,0,0,1,1.45.36,2.65,2.65,0,0,1,1,1.08,3.75,3.75,0,0,1,.39,1.8,3.87,3.87,0,0,1-.38,1.8,2.5,2.5,0,0,1-1,1.08A2.87,2.87,0,0,1,38.25,15.27Zm.09-1A2.2,2.2,0,0,0,39.43,14a2.09,2.09,0,0,0,.77-.79A2.39,2.39,0,0,0,40.48,12a2.32,2.32,0,0,0-.28-1.18,2.06,2.06,0,0,0-.77-.78,2.26,2.26,0,0,0-2.18,0,2.13,2.13,0,0,0-.77.78A2.32,2.32,0,0,0,36.2,12a2.39,2.39,0,0,0,.28,1.18,2.16,2.16,0,0,0,.77.79A2.2,2.2,0,0,0,38.34,14.26Zm2.18.94V13.48L40.59,12l-.12-1.48V6.29h1.15V15.2Z"/><path d="M44.38,7.61a.79.79,0,0,1-.56-.21.71.71,0,0,1-.22-.53.7.7,0,0,1,.22-.54.76.76,0,0,1,.56-.22.79.79,0,0,1,.56.21.69.69,0,0,1,.22.52.74.74,0,0,1-.22.55A.73.73,0,0,1,44.38,7.61ZM43.8,15.2V8.84H45V15.2Z"/><path d="M50.55,8.78a3,3,0,0,1,1.37.3,2.1,2.1,0,0,1,.93.91,3.12,3.12,0,0,1,.34,1.55V15.2H52V11.67a1.92,1.92,0,0,0-.45-1.39,1.66,1.66,0,0,0-1.27-.47,2.28,2.28,0,0,0-1.07.24,1.6,1.6,0,0,0-.7.71,2.52,2.52,0,0,0-.25,1.16V15.2H47.15V8.84h1.11v1.71l-.18-.45a2.1,2.1,0,0,1,1-1A3,3,0,0,1,50.55,8.78Z"/><path d="M58,14.93a3.46,3.46,0,0,1-1.65-.39,2.92,2.92,0,0,1-1.57-2.69,3,3,0,0,1,.42-1.61,3.06,3.06,0,0,1,1.15-1.08A3.46,3.46,0,0,1,58,8.78a3.33,3.33,0,0,1,1.49.33,2.5,2.5,0,0,1,1.08,1,3.46,3.46,0,0,1,.4,1.73,3.45,3.45,0,0,1-.4,1.72,2.65,2.65,0,0,1-1.08,1A3.2,3.2,0,0,1,58,14.93Zm.15,2.67a6,6,0,0,1-1.7-.25,3.55,3.55,0,0,1-1.34-.7l.55-.89a3.24,3.24,0,0,0,1.1.61,4.34,4.34,0,0,0,1.35.22,2.28,2.28,0,0,0,1.66-.53,2.2,2.2,0,0,0,.53-1.61V13.11l.12-1.26-.06-1.27V8.84h1.09v5.49a3.24,3.24,0,0,1-.84,2.47A3.45,3.45,0,0,1,58.11,17.6Zm0-3.68a2.26,2.26,0,0,0,1.12-.26,2,2,0,0,0,.78-.73,2.22,2.22,0,0,0,0-2.16,2,2,0,0,0-.78-.73,2.37,2.37,0,0,0-1.12-.26A2.46,2.46,0,0,0,57,10a2,2,0,0,0-.78.73,2.22,2.22,0,0,0,0,2.16,2,2,0,0,0,.78.73A2.34,2.34,0,0,0,58.1,13.92Z"/></g></g></svg>