<svg xmlns="http://www.w3.org/2000/svg" xmlns:xlink="http://www.w3.org/1999/xlink" viewBox="0 0 150 34"><defs><style>.cls-1{fill:url(#linear-gradient);}.cls-2{fill:#fff;}</style><linearGradient id="linear-gradient" x1="-149.06" y1="92.23" x2="302.24" y2="-59.3" gradientUnits="userSpaceOnUse"><stop offset="0" stop-color="#59bb6a"/><stop offset="0.89" stop-color="#063f20"/></linearGradient></defs><g id="Layer_2" data-name="Layer 2"><g id="Financial"><rect class="cls-1" width="150" height="34" rx="5.5"/><polygon class="cls-2" points="53.14 20.57 50.45 12.69 49.56 12.69 46.85 20.53 44.22 12.69 43.23 12.69 46.3 21.79 47.3 21.79 49.98 14.04 52.65 21.79 53.66 21.79 56.73 12.69 55.8 12.69 53.14 20.57"/><path class="cls-2" d="M58.72,12.14a.69.69,0,0,0-.48.19.64.64,0,0,0,0,.93.69.69,0,0,0,1,0,.68.68,0,0,0,.18-.48.58.58,0,0,0-.19-.45A.69.69,0,0,0,58.72,12.14Z"/><rect class="cls-2" x="58.25" y="14.97" width="0.92" height="6.83"/><path class="cls-2" d="M63.89,21.06a1.19,1.19,0,0,1-.88-.32,1.33,1.33,0,0,1-.3-.93V15.73h2.08V15H62.71V13.46h-.92V15H60.56v.76h1.23v4.14a2,2,0,0,0,.52,1.47,2,2,0,0,0,1.48.52,2.54,2.54,0,0,0,.78-.12,1.64,1.64,0,0,0,.66-.37l-.32-.66A1.47,1.47,0,0,1,63.89,21.06Z"/><path class="cls-2" d="M71.85,15.22a3.2,3.2,0,0,0-1.46-.32,3.3,3.3,0,0,0-1.7.42,2.41,2.41,0,0,0-.86.88V12.14h-.92v9.65h.92V18.2a2.87,2.87,0,0,1,.29-1.33A2,2,0,0,1,69,16a2.63,2.63,0,0,1,1.26-.29,2,2,0,0,1,1.52.56,2.23,2.23,0,0,1,.54,1.63v3.87h.92v-4a3.35,3.35,0,0,0-.36-1.64A2.26,2.26,0,0,0,71.85,15.22Z"/><path class="cls-2" d="M81,16.29a3,3,0,0,0-1-1,3.31,3.31,0,0,0-1.61-.4,3.53,3.53,0,0,0-1.75.44,3.13,3.13,0,0,0-1.21,1.21A3.58,3.58,0,0,0,75,18.37a3.61,3.61,0,0,0,.44,1.82,3.15,3.15,0,0,0,1.21,1.22,3.43,3.43,0,0,0,1.75.45A3.2,3.2,0,0,0,80,21.45a3,3,0,0,0,1-1.05v1.39h.88V12.14H81Zm-.32,3.48a2.42,2.42,0,0,1-.91.94,2.56,2.56,0,0,1-1.3.33,2.53,2.53,0,0,1-1.29-.33,2.49,2.49,0,0,1-.91-.94,3.05,3.05,0,0,1,0-2.8,2.39,2.39,0,0,1,.91-.93,2.53,2.53,0,0,1,1.29-.33,2.56,2.56,0,0,1,1.3.33,2.33,2.33,0,0,1,.91.93,3.05,3.05,0,0,1,0,2.8Z"/><path class="cls-2" d="M85.39,16.34V15h-.88v6.82h.92V18.31A2.68,2.68,0,0,1,86,16.44a2.19,2.19,0,0,1,1.69-.66h.21v-.9a3.22,3.22,0,0,0-1.68.41A2.26,2.26,0,0,0,85.39,16.34Z"/><path class="cls-2" d="M91.58,14.9a4.81,4.81,0,0,0-1.53.24,3.76,3.76,0,0,0-1.25.68l.41.69a3.36,3.36,0,0,1,1-.58,3.56,3.56,0,0,1,1.26-.22,2,2,0,0,1,1.45.46,1.81,1.81,0,0,1,.49,1.34v.42H91.26a3.77,3.77,0,0,0-1.56.27,1.77,1.77,0,0,0-.83.7,1.87,1.87,0,0,0-.25,1,1.81,1.81,0,0,0,.3,1,2,2,0,0,0,.86.7,3.22,3.22,0,0,0,1.33.26,3,3,0,0,0,1.62-.41,2.15,2.15,0,0,0,.74-.79v1.13h.88V17.55a2.55,2.55,0,0,0-.72-2A2.94,2.94,0,0,0,91.58,14.9Zm1,5.87a2.44,2.44,0,0,1-1.34.36A2.09,2.09,0,0,1,90,20.78,1.2,1.2,0,0,1,89.91,19a2.07,2.07,0,0,1,1.37-.35h2.15v1.12A2.08,2.08,0,0,1,92.6,20.77Z"/><polygon class="cls-2" points="105.92 14.96 103.74 20.76 101.56 14.96 100.77 14.96 98.57 20.76 96.43 14.96 95.55 14.96 98.12 21.79 98.99 21.79 101.16 16.19 103.31 21.79 104.18 21.79 106.77 14.96 105.92 14.96"/></g></g></svg>