<?xml version="1.0" encoding="UTF-8"?>
<svg id="Layer_1" data-name="Layer 1" xmlns="http://www.w3.org/2000/svg" xmlns:xlink="http://www.w3.org/1999/xlink" viewBox="0 0 1080 1080">
  <defs>
    <style>
      .cls-1 {
        fill: #fff;
      }

      .cls-2 {
        fill: url(#linear-gradient);
      }
    </style>
    <linearGradient id="linear-gradient" x1="540" y1="51.06" x2="540" y2="1022.41" gradientUnits="userSpaceOnUse">
      <stop offset="0" stop-color="#f05d75"/>
      <stop offset="1" stop-color="#ee2f42"/>
    </linearGradient>
  </defs>
  <path class="cls-2" d="M680.96,184.47c69.55.89,130.67-.12,178.53,58.18,29.24,35.62,35.68,79.02,36.31,123.94-2.77,118.83,3.91,239.54-.72,358.07-1.66,42.46-7.13,76.8-33.91,111.02-36.23,46.31-89.26,60.2-146.36,60.01-117.76-2.22-236.77,3.19-354.3-.75-41-1.38-74.29-4.66-108.98-28.38-46.71-31.92-66.38-83.69-67.18-139.09,3.13-123.83-4.38-249.91.72-373.39,1.95-47.12,10.17-86.36,43.93-121.21,47.41-48.95,106.73-47.58,170.19-48.39,93.71-1.2,188.05-1.2,281.77,0ZM689.09,292.71c-5.09-.03-12.65,1.93-17.92,2.85-73.51,12.84-146.36,30.67-219.66,44.61-10.81,3.82-15.27,11.84-16.08,22.94l-.15,274.99c-1.59,9.51-7.78,14.36-16.68,16.77-22.27,6.03-46.75,6.62-67.05,18.72-46.63,27.78-29.7,99.95,24.98,103.65,44.23,2.99,86.03-22.64,86.85-69.97.59-82.76-1.34-165.78.98-248.4,1.25-4.81,3.56-6.89,8.07-8.66l188.84-38.48c9.9-1.05,15.16-.33,16.19,10.62l.04,163.71c-.65,9.37-4.03,15.63-13.09,18.97-15.25,5.61-35.87,6.61-52.34,11.81-73.29,23.17-53.1,118.64,21.1,110.93,41.45-4.3,69.81-24.72,72.22-68.58v-351.13c-1.08-9.22-6.72-15.32-16.3-15.37Z"/>
  <path class="cls-1" d="M689.09,292.71c9.58.05,15.23,6.15,16.3,15.37v351.13c-2.41,43.86-30.77,64.27-72.22,68.58-74.2,7.71-94.4-87.76-21.1-110.93,16.46-5.2,37.09-6.2,52.34-11.81,9.06-3.33,12.44-9.59,13.09-18.97l-.04-163.71c-1.03-10.94-6.28-11.66-16.19-10.62l-188.84,38.48c-4.51,1.76-6.82,3.84-8.07,8.66-2.31,82.62-.39,165.63-.98,248.4-.82,47.32-42.62,72.96-86.85,69.97-54.68-3.7-71.62-75.86-24.98-103.65,20.3-12.09,44.77-12.69,67.05-18.72,8.9-2.41,15.1-7.26,16.68-16.77l.15-274.99c.82-11.1,5.27-19.13,16.08-22.94,73.3-13.94,146.15-31.78,219.66-44.61,5.27-.92,12.83-2.87,17.92-2.85Z"/>
</svg>