<?xml version="1.0" encoding="UTF-8"?>
<svg id="Layer_1" data-name="Layer 1" xmlns="http://www.w3.org/2000/svg" viewBox="0 0 1080 1080">
  <defs>
    <style>
      .cls-1 {
        fill: #fff;
      }

      .cls-2 {
        fill: #3cbeb1;
      }
    </style>
  </defs>
  <circle class="cls-2" cx="540" cy="540" r="356.43"/>
  <g>
    <path class="cls-1" d="M516.52,730.27c18.7-40.21,31.79-79.48,42.08-118.75,18.7-70.13,28.99-141.19,25.25-214.12-.93-16.83-2.8-33.66-5.61-51.43-1.87-10.29.93-13.09,11.22-13.09h86.96c39.27.94,68.26,28.99,69.19,68.26.93,27.12,0,54.23.93,81.35,0,8.42-5.61,10.29-10.29,13.09-61.71,33.66-111.27,78.54-149.6,137.45-19.64,30.86-35.53,64.52-45.82,100.05-2.8,10.29-7.48,14.03-17.77,13.09-23.38-.93-24.31,0-28.05-23.38-18.7-103.79-69.19-187.94-154.28-249.65-3.74-2.8-7.48-4.68-7.48-10.29.94-25.25-1.87-50.49,1.87-75.74,4.68-27.12,23.38-47.69,48.62-52.36,13.09-2.8,15.9-.94,21.51,11.22,33.66,72,64.52,144.93,83.22,222.53,11.22,48.62,19.64,98.18,26.18,147.73,0,1.87.93,6.54,1.87,14.02Z"/>
    <path class="cls-1" d="M631.53,746.17h-45.82c-5.61,0-10.29.93-13.09-5.61-2.8-6.54,1.87-10.29,5.61-14.03,24.31-25.25,54.23-43.01,86.96-57.04,23.38-10.29,46.75-17.77,70.13-25.25,9.35-2.8,12.16-.93,12.16,8.42,0,14.96.93,29.92-3.74,44.88-10.29,28.99-34.6,47.69-65.45,48.62h-46.75Z"/>
    <path class="cls-1" d="M428.63,746.17c-12.16-.93-27.12.93-41.14-1.87-35.53-7.48-59.84-44.88-54.23-79.48.94-5.61,3.74-8.42,10.29-7.48,45.82,13.09,90.7,28.99,122.49,67.32,1.87,2.81,3.74,4.68,5.61,7.48,4.68,7.48.93,14.03-7.48,14.96-11.22-.94-21.51-.94-35.53-.94Z"/>
  </g>
</svg>