<?xml version="1.0" encoding="UTF-8"?>
<svg id="Layer_1" data-name="Layer 1" xmlns="http://www.w3.org/2000/svg" viewBox="0 0 1080 1080">
  <defs>
    <style>
      .cls-1 {
        fill: #54ba5e;
      }
    </style>
  </defs>
  <path class="cls-1" d="M750.84,499.55c-114.89-68.23-304.4-74.5-414.08-41.22-17.62,5.34-36.24-4.6-41.57-22.21-5.34-17.62,4.59-36.24,22.22-41.59,125.91-38.22,335.2-30.84,467.46,47.68,15.85,9.41,21.04,29.87,11.65,45.68-9.4,15.84-29.88,21.07-45.68,11.66M747.07,600.61c-8.06,13.08-25.16,17.18-38.23,9.15-95.78-58.88-241.84-75.93-355.16-41.54-14.69,4.44-30.22-3.84-34.68-18.51-4.43-14.68,3.86-30.18,18.53-34.65,129.45-39.29,290.38-20.26,400.39,47.35,13.06,8.04,17.17,25.15,9.14,38.2M703.46,697.66c-6.37,10.47-20.03,13.79-30.5,7.42-.01,0-.03-.02-.04-.03-83.7-51.15-189.05-62.71-313.11-34.37-11.95,2.73-23.86-4.74-26.59-16.69,0,0,0,0,0,0-2.74-11.94,4.71-23.85,16.65-26.59.02,0,.04,0,.05-.01,135.77-31.03,252.23-17.68,346.18,39.73,10.47,6.4,13.77,20.07,7.38,30.54,0,0,0,0,0,0M539.99,183.57c-196.84,0-356.42,159.57-356.42,356.42s159.58,356.43,356.42,356.43,356.43-159.57,356.43-356.43-159.57-356.42-356.43-356.42"/>
</svg>